solid GanchoCarla
   facet normal 0.000000e+000 -2.256949e-032 1.000000e+000
      outer loop
         vertex 1.000000e+001 -4.000000e+001 -1.100000e+001
         vertex 1.000000e+001 -3.400000e+001 -1.100000e+001
         vertex -1.000000e+001 -4.000000e+001 -1.100000e+001
      endloop
   endfacet
   facet normal 0.000000e+000 -2.256949e-032 1.000000e+000
      outer loop
         vertex -1.000000e+001 -4.000000e+001 -1.100000e+001
         vertex 1.000000e+001 -3.400000e+001 -1.100000e+001
         vertex -1.000000e+001 -3.400000e+001 -1.100000e+001
      endloop
   endfacet
   facet normal -1.734723e-016 -1.000000e+000 0.000000e+000
      outer loop
         vertex -1.000000e+001 -2.000000e+000 0.000000e+000
         vertex 1.000000e+001 -2.000000e+000 0.000000e+000
         vertex -1.000000e+001 -2.000000e+000 4.100000e+001
      endloop
   endfacet
   facet normal -1.734723e-016 -1.000000e+000 0.000000e+000
      outer loop
         vertex -1.000000e+001 -2.000000e+000 4.100000e+001
         vertex 1.000000e+001 -2.000000e+000 0.000000e+000
         vertex 1.000000e+001 -2.000000e+000 4.100000e+001
      endloop
   endfacet
   facet normal 1.000000e+000 0.000000e+000 0.000000e+000
      outer loop
         vertex 1.000000e+001 -3.017317e+001 -1.023880e+001
         vertex 1.000000e+001 -3.141181e+001 -1.065926e+001
         vertex 1.000000e+001 -3.000000e+001 -1.500000e+001
      endloop
   endfacet
   facet normal 1.000000e+000 0.000000e+000 0.000000e+000
      outer loop
         vertex 1.000000e+001 -4.923879e+001 -4.826834e+000
         vertex 1.000000e+001 -4.965926e+001 -3.588191e+000
         vertex 1.000000e+001 -5.400000e+001 -5.000000e+000
      endloop
   endfacet
   facet normal 1.000000e+000 0.000000e+000 0.000000e+000
      outer loop
         vertex 1.000000e+001 -2.000000e+000 0.000000e+000
         vertex 1.000000e+001 2.000000e+000 0.000000e+000
         vertex 1.000000e+001 -2.000000e+000 4.100000e+001
      endloop
   endfacet
   facet normal 1.000000e+000 0.000000e+000 0.000000e+000
      outer loop
         vertex 1.000000e+001 -2.000000e+000 4.100000e+001
         vertex 1.000000e+001 2.000000e+000 0.000000e+000
         vertex 1.000000e+001 2.000000e+000 4.500000e+001
      endloop
   endfacet
   facet normal 1.000000e+000 0.000000e+000 0.000000e+000
      outer loop
         vertex 1.000000e+001 -2.000000e+000 4.100000e+001
         vertex 1.000000e+001 2.000000e+000 4.500000e+001
         vertex 1.000000e+001 -2.000000e+001 4.100000e+001
      endloop
   endfacet
   facet normal 1.000000e+000 0.000000e+000 0.000000e+000
      outer loop
         vertex 1.000000e+001 -2.000000e+001 4.100000e+001
         vertex 1.000000e+001 2.000000e+000 4.500000e+001
         vertex 1.000000e+001 -2.400000e+001 4.500000e+001
      endloop
   endfacet
   facet normal 1.000000e+000 0.000000e+000 0.000000e+000
      outer loop
         vertex 1.000000e+001 -2.000000e+001 4.100000e+001
         vertex 1.000000e+001 -2.400000e+001 4.500000e+001
         vertex 1.000000e+001 -2.000000e+001 -5.000000e+000
      endloop
   endfacet
   facet normal 1.000000e+000 0.000000e+000 0.000000e+000
      outer loop
         vertex 1.000000e+001 -2.000000e+001 -5.000000e+000
         vertex 1.000000e+001 -2.400000e+001 4.500000e+001
         vertex 1.000000e+001 -2.400000e+001 -1.000000e+000
      endloop
   endfacet
   facet normal 1.000000e+000 0.000000e+000 0.000000e+000
      outer loop
         vertex 1.000000e+001 -2.391239e+001 -1.293353e+001
         vertex 1.000000e+001 -2.692893e+001 -8.071068e+000
         vertex 1.000000e+001 -2.791239e+001 -8.933533e+000
      endloop
   endfacet
   facet normal 1.000000e+000 0.000000e+000 0.000000e+000
      outer loop
         vertex 1.000000e+001 -4.707107e+001 -8.071068e+000
         vertex 1.000000e+001 -5.008762e+001 -1.293353e+001
         vertex 1.000000e+001 -4.608762e+001 -8.933533e+000
      endloop
   endfacet
   facet normal 1.000000e+000 0.000000e+000 0.000000e+000
      outer loop
         vertex 1.000000e+001 -4.608762e+001 -8.933533e+000
         vertex 1.000000e+001 -5.008762e+001 -1.293353e+001
         vertex 1.000000e+001 -4.900000e+001 -1.366025e+001
      endloop
   endfacet
   facet normal 1.000000e+000 0.000000e+000 0.000000e+000
      outer loop
         vertex 1.000000e+001 -4.608762e+001 -8.933533e+000
         vertex 1.000000e+001 -4.900000e+001 -1.366025e+001
         vertex 1.000000e+001 -4.500000e+001 -9.660254e+000
      endloop
   endfacet
   facet normal 1.000000e+000 0.000000e+000 0.000000e+000
      outer loop
         vertex 1.000000e+001 -4.793353e+001 -7.087615e+000
         vertex 1.000000e+001 -5.193353e+001 -1.108761e+001
         vertex 1.000000e+001 -4.707107e+001 -8.071068e+000
      endloop
   endfacet
   facet normal 1.000000e+000 0.000000e+000 0.000000e+000
      outer loop
         vertex 1.000000e+001 -4.707107e+001 -8.071068e+000
         vertex 1.000000e+001 -5.193353e+001 -1.108761e+001
         vertex 1.000000e+001 -5.107107e+001 -1.207107e+001
      endloop
   endfacet
   facet normal 1.000000e+000 0.000000e+000 0.000000e+000
      outer loop
         vertex 1.000000e+001 -4.707107e+001 -8.071068e+000
         vertex 1.000000e+001 -5.107107e+001 -1.207107e+001
         vertex 1.000000e+001 -5.008762e+001 -1.293353e+001
      endloop
   endfacet
   facet normal 1.000000e+000 0.000000e+000 0.000000e+000
      outer loop
         vertex 1.000000e+001 -5.400000e+001 -5.000000e+000
         vertex 1.000000e+001 -5.391445e+001 -6.305262e+000
         vertex 1.000000e+001 -4.923879e+001 -4.826834e+000
      endloop
   endfacet
   facet normal 1.000000e+000 0.000000e+000 0.000000e+000
      outer loop
         vertex 1.000000e+001 -4.923879e+001 -4.826834e+000
         vertex 1.000000e+001 -5.391445e+001 -6.305262e+000
         vertex 1.000000e+001 -5.365926e+001 -7.588191e+000
      endloop
   endfacet
   facet normal 1.000000e+000 0.000000e+000 0.000000e+000
      outer loop
         vertex 1.000000e+001 -4.923879e+001 -4.826834e+000
         vertex 1.000000e+001 -5.365926e+001 -7.588191e+000
         vertex 1.000000e+001 -4.866025e+001 -6.000000e+000
      endloop
   endfacet
   facet normal 1.000000e+000 0.000000e+000 0.000000e+000
      outer loop
         vertex 1.000000e+001 -4.866025e+001 -6.000000e+000
         vertex 1.000000e+001 -5.365926e+001 -7.588191e+000
         vertex 1.000000e+001 -5.323879e+001 -8.826834e+000
      endloop
   endfacet
   facet normal 1.000000e+000 0.000000e+000 0.000000e+000
      outer loop
         vertex 1.000000e+001 -4.866025e+001 -6.000000e+000
         vertex 1.000000e+001 -5.323879e+001 -8.826834e+000
         vertex 1.000000e+001 -4.793353e+001 -7.087615e+000
      endloop
   endfacet
   facet normal 1.000000e+000 0.000000e+000 0.000000e+000
      outer loop
         vertex 1.000000e+001 -4.793353e+001 -7.087615e+000
         vertex 1.000000e+001 -5.323879e+001 -8.826834e+000
         vertex 1.000000e+001 -5.266025e+001 -1.000000e+001
      endloop
   endfacet
   facet normal 1.000000e+000 0.000000e+000 0.000000e+000
      outer loop
         vertex 1.000000e+001 -4.793353e+001 -7.087615e+000
         vertex 1.000000e+001 -5.266025e+001 -1.000000e+001
         vertex 1.000000e+001 -5.193353e+001 -1.108761e+001
      endloop
   endfacet
   facet normal 1.000000e+000 0.000000e+000 0.000000e+000
      outer loop
         vertex 1.000000e+001 -5.000000e+001 9.000000e+000
         vertex 1.000000e+001 -5.400000e+001 9.000000e+000
         vertex 1.000000e+001 -5.000000e+001 -1.000000e+000
      endloop
   endfacet
   facet normal 1.000000e+000 0.000000e+000 0.000000e+000
      outer loop
         vertex 1.000000e+001 -5.000000e+001 -1.000000e+000
         vertex 1.000000e+001 -5.400000e+001 9.000000e+000
         vertex 1.000000e+001 -5.400000e+001 -5.000000e+000
      endloop
   endfacet
   facet normal 1.000000e+000 0.000000e+000 0.000000e+000
      outer loop
         vertex 1.000000e+001 -5.000000e+001 -1.000000e+000
         vertex 1.000000e+001 -5.400000e+001 -5.000000e+000
         vertex 1.000000e+001 -4.991445e+001 -2.305262e+000
      endloop
   endfacet
   facet normal 1.000000e+000 0.000000e+000 0.000000e+000
      outer loop
         vertex 1.000000e+001 -4.991445e+001 -2.305262e+000
         vertex 1.000000e+001 -5.400000e+001 -5.000000e+000
         vertex 1.000000e+001 -4.965926e+001 -3.588191e+000
      endloop
   endfacet
   facet normal 1.000000e+000 0.000000e+000 0.000000e+000
      outer loop
         vertex 1.000000e+001 -2.391239e+001 -1.293353e+001
         vertex 1.000000e+001 -2.292893e+001 -1.207107e+001
         vertex 1.000000e+001 -2.692893e+001 -8.071068e+000
      endloop
   endfacet
   facet normal 1.000000e+000 0.000000e+000 0.000000e+000
      outer loop
         vertex 1.000000e+001 -2.692893e+001 -8.071068e+000
         vertex 1.000000e+001 -2.292893e+001 -1.207107e+001
         vertex 1.000000e+001 -2.206647e+001 -1.108761e+001
      endloop
   endfacet
   facet normal 1.000000e+000 0.000000e+000 0.000000e+000
      outer loop
         vertex 1.000000e+001 -2.692893e+001 -8.071068e+000
         vertex 1.000000e+001 -2.206647e+001 -1.108761e+001
         vertex 1.000000e+001 -2.606647e+001 -7.087615e+000
      endloop
   endfacet
   facet normal 1.000000e+000 0.000000e+000 0.000000e+000
      outer loop
         vertex 1.000000e+001 -2.606647e+001 -7.087615e+000
         vertex 1.000000e+001 -2.206647e+001 -1.108761e+001
         vertex 1.000000e+001 -2.133975e+001 -1.000000e+001
      endloop
   endfacet
   facet normal 1.000000e+000 0.000000e+000 0.000000e+000
      outer loop
         vertex 1.000000e+001 -2.606647e+001 -7.087615e+000
         vertex 1.000000e+001 -2.133975e+001 -1.000000e+001
         vertex 1.000000e+001 -2.533975e+001 -6.000000e+000
      endloop
   endfacet
   facet normal 1.000000e+000 0.000000e+000 0.000000e+000
      outer loop
         vertex 1.000000e+001 -3.000000e+001 -1.500000e+001
         vertex 1.000000e+001 -2.869474e+001 -1.491445e+001
         vertex 1.000000e+001 -3.017317e+001 -1.023880e+001
      endloop
   endfacet
   facet normal 1.000000e+000 0.000000e+000 0.000000e+000
      outer loop
         vertex 1.000000e+001 -3.017317e+001 -1.023880e+001
         vertex 1.000000e+001 -2.869474e+001 -1.491445e+001
         vertex 1.000000e+001 -2.741181e+001 -1.465926e+001
      endloop
   endfacet
   facet normal 1.000000e+000 0.000000e+000 0.000000e+000
      outer loop
         vertex 1.000000e+001 -3.017317e+001 -1.023880e+001
         vertex 1.000000e+001 -2.741181e+001 -1.465926e+001
         vertex 1.000000e+001 -2.900000e+001 -9.660254e+000
      endloop
   endfacet
   facet normal 1.000000e+000 0.000000e+000 0.000000e+000
      outer loop
         vertex 1.000000e+001 -2.900000e+001 -9.660254e+000
         vertex 1.000000e+001 -2.741181e+001 -1.465926e+001
         vertex 1.000000e+001 -2.617316e+001 -1.423880e+001
      endloop
   endfacet
   facet normal 1.000000e+000 0.000000e+000 0.000000e+000
      outer loop
         vertex 1.000000e+001 -2.900000e+001 -9.660254e+000
         vertex 1.000000e+001 -2.617316e+001 -1.423880e+001
         vertex 1.000000e+001 -2.791239e+001 -8.933533e+000
      endloop
   endfacet
   facet normal 1.000000e+000 0.000000e+000 0.000000e+000
      outer loop
         vertex 1.000000e+001 -2.791239e+001 -8.933533e+000
         vertex 1.000000e+001 -2.617316e+001 -1.423880e+001
         vertex 1.000000e+001 -2.500000e+001 -1.366025e+001
      endloop
   endfacet
   facet normal 1.000000e+000 0.000000e+000 0.000000e+000
      outer loop
         vertex 1.000000e+001 -2.791239e+001 -8.933533e+000
         vertex 1.000000e+001 -2.500000e+001 -1.366025e+001
         vertex 1.000000e+001 -2.391239e+001 -1.293353e+001
      endloop
   endfacet
   facet normal 1.000000e+000 0.000000e+000 0.000000e+000
      outer loop
         vertex 1.000000e+001 -4.900000e+001 -1.366025e+001
         vertex 1.000000e+001 -4.782684e+001 -1.423880e+001
         vertex 1.000000e+001 -4.500000e+001 -9.660254e+000
      endloop
   endfacet
   facet normal 1.000000e+000 0.000000e+000 0.000000e+000
      outer loop
         vertex 1.000000e+001 -4.500000e+001 -9.660254e+000
         vertex 1.000000e+001 -4.782684e+001 -1.423880e+001
         vertex 1.000000e+001 -4.658819e+001 -1.465926e+001
      endloop
   endfacet
   facet normal 1.000000e+000 0.000000e+000 0.000000e+000
      outer loop
         vertex 1.000000e+001 -4.500000e+001 -9.660254e+000
         vertex 1.000000e+001 -4.658819e+001 -1.465926e+001
         vertex 1.000000e+001 -4.382683e+001 -1.023880e+001
      endloop
   endfacet
   facet normal 1.000000e+000 0.000000e+000 0.000000e+000
      outer loop
         vertex 1.000000e+001 -4.382683e+001 -1.023880e+001
         vertex 1.000000e+001 -4.658819e+001 -1.465926e+001
         vertex 1.000000e+001 -4.530526e+001 -1.491445e+001
      endloop
   endfacet
   facet normal 1.000000e+000 0.000000e+000 0.000000e+000
      outer loop
         vertex 1.000000e+001 -4.382683e+001 -1.023880e+001
         vertex 1.000000e+001 -4.530526e+001 -1.491445e+001
         vertex 1.000000e+001 -4.258819e+001 -1.065926e+001
      endloop
   endfacet
   facet normal 1.000000e+000 0.000000e+000 0.000000e+000
      outer loop
         vertex 1.000000e+001 -4.258819e+001 -1.065926e+001
         vertex 1.000000e+001 -4.530526e+001 -1.491445e+001
         vertex 1.000000e+001 -4.400000e+001 -1.500000e+001
      endloop
   endfacet
   facet normal 1.000000e+000 0.000000e+000 0.000000e+000
      outer loop
         vertex 1.000000e+001 -4.258819e+001 -1.065926e+001
         vertex 1.000000e+001 -4.400000e+001 -1.500000e+001
         vertex 1.000000e+001 -4.130526e+001 -1.091445e+001
      endloop
   endfacet
   facet normal 1.000000e+000 0.000000e+000 0.000000e+000
      outer loop
         vertex 1.000000e+001 -2.400000e+001 -1.000000e+000
         vertex 1.000000e+001 -2.408555e+001 -2.305262e+000
         vertex 1.000000e+001 -2.000000e+001 -5.000000e+000
      endloop
   endfacet
   facet normal 1.000000e+000 0.000000e+000 0.000000e+000
      outer loop
         vertex 1.000000e+001 -2.000000e+001 -5.000000e+000
         vertex 1.000000e+001 -2.408555e+001 -2.305262e+000
         vertex 1.000000e+001 -2.434074e+001 -3.588191e+000
      endloop
   endfacet
   facet normal 1.000000e+000 0.000000e+000 0.000000e+000
      outer loop
         vertex 1.000000e+001 -2.000000e+001 -5.000000e+000
         vertex 1.000000e+001 -2.434074e+001 -3.588191e+000
         vertex 1.000000e+001 -2.008555e+001 -6.305262e+000
      endloop
   endfacet
   facet normal 1.000000e+000 0.000000e+000 0.000000e+000
      outer loop
         vertex 1.000000e+001 -2.008555e+001 -6.305262e+000
         vertex 1.000000e+001 -2.434074e+001 -3.588191e+000
         vertex 1.000000e+001 -2.476121e+001 -4.826834e+000
      endloop
   endfacet
   facet normal 1.000000e+000 0.000000e+000 0.000000e+000
      outer loop
         vertex 1.000000e+001 -2.008555e+001 -6.305262e+000
         vertex 1.000000e+001 -2.476121e+001 -4.826834e+000
         vertex 1.000000e+001 -2.034074e+001 -7.588191e+000
      endloop
   endfacet
   facet normal 1.000000e+000 0.000000e+000 0.000000e+000
      outer loop
         vertex 1.000000e+001 -2.034074e+001 -7.588191e+000
         vertex 1.000000e+001 -2.476121e+001 -4.826834e+000
         vertex 1.000000e+001 -2.533975e+001 -6.000000e+000
      endloop
   endfacet
   facet normal 1.000000e+000 0.000000e+000 0.000000e+000
      outer loop
         vertex 1.000000e+001 -2.034074e+001 -7.588191e+000
         vertex 1.000000e+001 -2.533975e+001 -6.000000e+000
         vertex 1.000000e+001 -2.076121e+001 -8.826834e+000
      endloop
   endfacet
   facet normal 1.000000e+000 0.000000e+000 0.000000e+000
      outer loop
         vertex 1.000000e+001 -2.076121e+001 -8.826834e+000
         vertex 1.000000e+001 -2.533975e+001 -6.000000e+000
         vertex 1.000000e+001 -2.133975e+001 -1.000000e+001
      endloop
   endfacet
   facet normal 1.000000e+000 0.000000e+000 0.000000e+000
      outer loop
         vertex 1.000000e+001 -3.141181e+001 -1.065926e+001
         vertex 1.000000e+001 -3.269474e+001 -1.091445e+001
         vertex 1.000000e+001 -3.000000e+001 -1.500000e+001
      endloop
   endfacet
   facet normal 1.000000e+000 0.000000e+000 0.000000e+000
      outer loop
         vertex 1.000000e+001 -3.000000e+001 -1.500000e+001
         vertex 1.000000e+001 -3.269474e+001 -1.091445e+001
         vertex 1.000000e+001 -3.400000e+001 -1.100000e+001
      endloop
   endfacet
   facet normal 1.000000e+000 0.000000e+000 0.000000e+000
      outer loop
         vertex 1.000000e+001 -3.000000e+001 -1.500000e+001
         vertex 1.000000e+001 -3.400000e+001 -1.100000e+001
         vertex 1.000000e+001 -4.400000e+001 -1.500000e+001
      endloop
   endfacet
   facet normal 1.000000e+000 0.000000e+000 0.000000e+000
      outer loop
         vertex 1.000000e+001 -4.400000e+001 -1.500000e+001
         vertex 1.000000e+001 -3.400000e+001 -1.100000e+001
         vertex 1.000000e+001 -4.000000e+001 -1.100000e+001
      endloop
   endfacet
   facet normal 1.000000e+000 0.000000e+000 0.000000e+000
      outer loop
         vertex 1.000000e+001 -4.400000e+001 -1.500000e+001
         vertex 1.000000e+001 -4.000000e+001 -1.100000e+001
         vertex 1.000000e+001 -4.130526e+001 -1.091445e+001
      endloop
   endfacet
   facet normal 0.000000e+000 1.000000e+000 0.000000e+000
      outer loop
         vertex -1.000000e+001 2.000000e+000 4.500000e+001
         vertex 1.000000e+001 2.000000e+000 4.500000e+001
         vertex -1.000000e+001 2.000000e+000 0.000000e+000
      endloop
   endfacet
   facet normal 0.000000e+000 1.000000e+000 0.000000e+000
      outer loop
         vertex -1.000000e+001 2.000000e+000 0.000000e+000
         vertex 1.000000e+001 2.000000e+000 4.500000e+001
         vertex 1.000000e+001 2.000000e+000 0.000000e+000
      endloop
   endfacet
   facet normal -1.000000e+000 0.000000e+000 0.000000e+000
      outer loop
         vertex -1.000000e+001 -5.400000e+001 9.000000e+000
         vertex -1.000000e+001 -5.000000e+001 9.000000e+000
         vertex -1.000000e+001 -5.400000e+001 -5.000000e+000
      endloop
   endfacet
   facet normal -1.000000e+000 0.000000e+000 0.000000e+000
      outer loop
         vertex -1.000000e+001 -5.400000e+001 -5.000000e+000
         vertex -1.000000e+001 -5.000000e+001 9.000000e+000
         vertex -1.000000e+001 -5.000000e+001 -1.000000e+000
      endloop
   endfacet
   facet normal -1.000000e+000 0.000000e+000 0.000000e+000
      outer loop
         vertex -1.000000e+001 -2.476121e+001 -4.826834e+000
         vertex -1.000000e+001 -2.434074e+001 -3.588191e+000
         vertex -1.000000e+001 -2.000000e+001 -5.000000e+000
      endloop
   endfacet
   facet normal -1.000000e+000 0.000000e+000 0.000000e+000
      outer loop
         vertex -1.000000e+001 2.000000e+000 0.000000e+000
         vertex -1.000000e+001 -2.000000e+000 0.000000e+000
         vertex -1.000000e+001 2.000000e+000 4.500000e+001
      endloop
   endfacet
   facet normal -1.000000e+000 0.000000e+000 0.000000e+000
      outer loop
         vertex -1.000000e+001 2.000000e+000 4.500000e+001
         vertex -1.000000e+001 -2.000000e+000 0.000000e+000
         vertex -1.000000e+001 -2.000000e+000 4.100000e+001
      endloop
   endfacet
   facet normal -1.000000e+000 0.000000e+000 0.000000e+000
      outer loop
         vertex -1.000000e+001 2.000000e+000 4.500000e+001
         vertex -1.000000e+001 -2.000000e+000 4.100000e+001
         vertex -1.000000e+001 -2.400000e+001 4.500000e+001
      endloop
   endfacet
   facet normal -1.000000e+000 0.000000e+000 0.000000e+000
      outer loop
         vertex -1.000000e+001 -2.400000e+001 4.500000e+001
         vertex -1.000000e+001 -2.000000e+000 4.100000e+001
         vertex -1.000000e+001 -2.000000e+001 4.100000e+001
      endloop
   endfacet
   facet normal -1.000000e+000 0.000000e+000 0.000000e+000
      outer loop
         vertex -1.000000e+001 -2.400000e+001 4.500000e+001
         vertex -1.000000e+001 -2.000000e+001 4.100000e+001
         vertex -1.000000e+001 -2.400000e+001 -1.000000e+000
      endloop
   endfacet
   facet normal -1.000000e+000 0.000000e+000 0.000000e+000
      outer loop
         vertex -1.000000e+001 -2.400000e+001 -1.000000e+000
         vertex -1.000000e+001 -2.000000e+001 4.100000e+001
         vertex -1.000000e+001 -2.000000e+001 -5.000000e+000
      endloop
   endfacet
   facet normal -1.000000e+000 0.000000e+000 0.000000e+000
      outer loop
         vertex -1.000000e+001 -2.400000e+001 -1.000000e+000
         vertex -1.000000e+001 -2.000000e+001 -5.000000e+000
         vertex -1.000000e+001 -2.408555e+001 -2.305262e+000
      endloop
   endfacet
   facet normal -1.000000e+000 0.000000e+000 0.000000e+000
      outer loop
         vertex -1.000000e+001 -2.408555e+001 -2.305262e+000
         vertex -1.000000e+001 -2.000000e+001 -5.000000e+000
         vertex -1.000000e+001 -2.434074e+001 -3.588191e+000
      endloop
   endfacet
   facet normal -1.000000e+000 0.000000e+000 0.000000e+000
      outer loop
         vertex -1.000000e+001 -5.000000e+001 -1.000000e+000
         vertex -1.000000e+001 -4.991445e+001 -2.305262e+000
         vertex -1.000000e+001 -5.400000e+001 -5.000000e+000
      endloop
   endfacet
   facet normal -1.000000e+000 0.000000e+000 0.000000e+000
      outer loop
         vertex -1.000000e+001 -5.400000e+001 -5.000000e+000
         vertex -1.000000e+001 -4.991445e+001 -2.305262e+000
         vertex -1.000000e+001 -4.965926e+001 -3.588191e+000
      endloop
   endfacet
   facet normal -1.000000e+000 0.000000e+000 0.000000e+000
      outer loop
         vertex -1.000000e+001 -5.400000e+001 -5.000000e+000
         vertex -1.000000e+001 -4.965926e+001 -3.588191e+000
         vertex -1.000000e+001 -5.391445e+001 -6.305262e+000
      endloop
   endfacet
   facet normal -1.000000e+000 0.000000e+000 0.000000e+000
      outer loop
         vertex -1.000000e+001 -5.391445e+001 -6.305262e+000
         vertex -1.000000e+001 -4.965926e+001 -3.588191e+000
         vertex -1.000000e+001 -4.923879e+001 -4.826834e+000
      endloop
   endfacet
   facet normal -1.000000e+000 0.000000e+000 0.000000e+000
      outer loop
         vertex -1.000000e+001 -5.391445e+001 -6.305262e+000
         vertex -1.000000e+001 -4.923879e+001 -4.826834e+000
         vertex -1.000000e+001 -5.365926e+001 -7.588191e+000
      endloop
   endfacet
   facet normal -1.000000e+000 0.000000e+000 0.000000e+000
      outer loop
         vertex -1.000000e+001 -5.365926e+001 -7.588191e+000
         vertex -1.000000e+001 -4.923879e+001 -4.826834e+000
         vertex -1.000000e+001 -4.866025e+001 -6.000000e+000
      endloop
   endfacet
   facet normal -1.000000e+000 0.000000e+000 0.000000e+000
      outer loop
         vertex -1.000000e+001 -5.008762e+001 -1.293353e+001
         vertex -1.000000e+001 -4.707107e+001 -8.071068e+000
         vertex -1.000000e+001 -4.608762e+001 -8.933533e+000
      endloop
   endfacet
   facet normal -1.000000e+000 0.000000e+000 0.000000e+000
      outer loop
         vertex -1.000000e+001 -5.008762e+001 -1.293353e+001
         vertex -1.000000e+001 -5.107107e+001 -1.207107e+001
         vertex -1.000000e+001 -4.707107e+001 -8.071068e+000
      endloop
   endfacet
   facet normal -1.000000e+000 0.000000e+000 0.000000e+000
      outer loop
         vertex -1.000000e+001 -4.707107e+001 -8.071068e+000
         vertex -1.000000e+001 -5.107107e+001 -1.207107e+001
         vertex -1.000000e+001 -5.193353e+001 -1.108761e+001
      endloop
   endfacet
   facet normal -1.000000e+000 0.000000e+000 0.000000e+000
      outer loop
         vertex -1.000000e+001 -4.707107e+001 -8.071068e+000
         vertex -1.000000e+001 -5.193353e+001 -1.108761e+001
         vertex -1.000000e+001 -4.793353e+001 -7.087615e+000
      endloop
   endfacet
   facet normal -1.000000e+000 0.000000e+000 0.000000e+000
      outer loop
         vertex -1.000000e+001 -4.793353e+001 -7.087615e+000
         vertex -1.000000e+001 -5.193353e+001 -1.108761e+001
         vertex -1.000000e+001 -5.266025e+001 -1.000000e+001
      endloop
   endfacet
   facet normal -1.000000e+000 0.000000e+000 0.000000e+000
      outer loop
         vertex -1.000000e+001 -4.793353e+001 -7.087615e+000
         vertex -1.000000e+001 -5.266025e+001 -1.000000e+001
         vertex -1.000000e+001 -4.866025e+001 -6.000000e+000
      endloop
   endfacet
   facet normal -1.000000e+000 0.000000e+000 0.000000e+000
      outer loop
         vertex -1.000000e+001 -4.866025e+001 -6.000000e+000
         vertex -1.000000e+001 -5.266025e+001 -1.000000e+001
         vertex -1.000000e+001 -5.323879e+001 -8.826834e+000
      endloop
   endfacet
   facet normal -1.000000e+000 0.000000e+000 0.000000e+000
      outer loop
         vertex -1.000000e+001 -4.866025e+001 -6.000000e+000
         vertex -1.000000e+001 -5.323879e+001 -8.826834e+000
         vertex -1.000000e+001 -5.365926e+001 -7.588191e+000
      endloop
   endfacet
   facet normal -1.000000e+000 0.000000e+000 0.000000e+000
      outer loop
         vertex -1.000000e+001 -2.900000e+001 -9.660254e+000
         vertex -1.000000e+001 -2.741181e+001 -1.465926e+001
         vertex -1.000000e+001 -3.017317e+001 -1.023880e+001
      endloop
   endfacet
   facet normal -1.000000e+000 0.000000e+000 0.000000e+000
      outer loop
         vertex -1.000000e+001 -3.017317e+001 -1.023880e+001
         vertex -1.000000e+001 -2.741181e+001 -1.465926e+001
         vertex -1.000000e+001 -2.869474e+001 -1.491445e+001
      endloop
   endfacet
   facet normal -1.000000e+000 0.000000e+000 0.000000e+000
      outer loop
         vertex -1.000000e+001 -3.017317e+001 -1.023880e+001
         vertex -1.000000e+001 -2.869474e+001 -1.491445e+001
         vertex -1.000000e+001 -3.141181e+001 -1.065926e+001
      endloop
   endfacet
   facet normal -1.000000e+000 0.000000e+000 0.000000e+000
      outer loop
         vertex -1.000000e+001 -3.141181e+001 -1.065926e+001
         vertex -1.000000e+001 -2.869474e+001 -1.491445e+001
         vertex -1.000000e+001 -3.000000e+001 -1.500000e+001
      endloop
   endfacet
   facet normal -1.000000e+000 0.000000e+000 0.000000e+000
      outer loop
         vertex -1.000000e+001 -3.141181e+001 -1.065926e+001
         vertex -1.000000e+001 -3.000000e+001 -1.500000e+001
         vertex -1.000000e+001 -3.269474e+001 -1.091445e+001
      endloop
   endfacet
   facet normal -1.000000e+000 0.000000e+000 0.000000e+000
      outer loop
         vertex -1.000000e+001 -2.206647e+001 -1.108761e+001
         vertex -1.000000e+001 -2.692893e+001 -8.071068e+000
         vertex -1.000000e+001 -2.606647e+001 -7.087615e+000
      endloop
   endfacet
   facet normal -1.000000e+000 0.000000e+000 0.000000e+000
      outer loop
         vertex -1.000000e+001 -2.000000e+001 -5.000000e+000
         vertex -1.000000e+001 -2.008555e+001 -6.305262e+000
         vertex -1.000000e+001 -2.476121e+001 -4.826834e+000
      endloop
   endfacet
   facet normal -1.000000e+000 0.000000e+000 0.000000e+000
      outer loop
         vertex -1.000000e+001 -2.476121e+001 -4.826834e+000
         vertex -1.000000e+001 -2.008555e+001 -6.305262e+000
         vertex -1.000000e+001 -2.034074e+001 -7.588191e+000
      endloop
   endfacet
   facet normal -1.000000e+000 0.000000e+000 0.000000e+000
      outer loop
         vertex -1.000000e+001 -2.476121e+001 -4.826834e+000
         vertex -1.000000e+001 -2.034074e+001 -7.588191e+000
         vertex -1.000000e+001 -2.533975e+001 -6.000000e+000
      endloop
   endfacet
   facet normal -1.000000e+000 0.000000e+000 0.000000e+000
      outer loop
         vertex -1.000000e+001 -2.533975e+001 -6.000000e+000
         vertex -1.000000e+001 -2.034074e+001 -7.588191e+000
         vertex -1.000000e+001 -2.076121e+001 -8.826834e+000
      endloop
   endfacet
   facet normal -1.000000e+000 0.000000e+000 0.000000e+000
      outer loop
         vertex -1.000000e+001 -2.533975e+001 -6.000000e+000
         vertex -1.000000e+001 -2.076121e+001 -8.826834e+000
         vertex -1.000000e+001 -2.606647e+001 -7.087615e+000
      endloop
   endfacet
   facet normal -1.000000e+000 0.000000e+000 0.000000e+000
      outer loop
         vertex -1.000000e+001 -2.606647e+001 -7.087615e+000
         vertex -1.000000e+001 -2.076121e+001 -8.826834e+000
         vertex -1.000000e+001 -2.133975e+001 -1.000000e+001
      endloop
   endfacet
   facet normal -1.000000e+000 0.000000e+000 0.000000e+000
      outer loop
         vertex -1.000000e+001 -2.606647e+001 -7.087615e+000
         vertex -1.000000e+001 -2.133975e+001 -1.000000e+001
         vertex -1.000000e+001 -2.206647e+001 -1.108761e+001
      endloop
   endfacet
   facet normal -1.000000e+000 0.000000e+000 0.000000e+000
      outer loop
         vertex -1.000000e+001 -4.382683e+001 -1.023880e+001
         vertex -1.000000e+001 -4.658819e+001 -1.465926e+001
         vertex -1.000000e+001 -4.500000e+001 -9.660254e+000
      endloop
   endfacet
   facet normal -1.000000e+000 0.000000e+000 0.000000e+000
      outer loop
         vertex -1.000000e+001 -4.500000e+001 -9.660254e+000
         vertex -1.000000e+001 -4.658819e+001 -1.465926e+001
         vertex -1.000000e+001 -4.782684e+001 -1.423880e+001
      endloop
   endfacet
   facet normal -1.000000e+000 0.000000e+000 0.000000e+000
      outer loop
         vertex -1.000000e+001 -4.500000e+001 -9.660254e+000
         vertex -1.000000e+001 -4.782684e+001 -1.423880e+001
         vertex -1.000000e+001 -4.608762e+001 -8.933533e+000
      endloop
   endfacet
   facet normal -1.000000e+000 0.000000e+000 0.000000e+000
      outer loop
         vertex -1.000000e+001 -4.608762e+001 -8.933533e+000
         vertex -1.000000e+001 -4.782684e+001 -1.423880e+001
         vertex -1.000000e+001 -4.900000e+001 -1.366025e+001
      endloop
   endfacet
   facet normal -1.000000e+000 0.000000e+000 0.000000e+000
      outer loop
         vertex -1.000000e+001 -4.608762e+001 -8.933533e+000
         vertex -1.000000e+001 -4.900000e+001 -1.366025e+001
         vertex -1.000000e+001 -5.008762e+001 -1.293353e+001
      endloop
   endfacet
   facet normal -1.000000e+000 0.000000e+000 0.000000e+000
      outer loop
         vertex -1.000000e+001 -2.206647e+001 -1.108761e+001
         vertex -1.000000e+001 -2.292893e+001 -1.207107e+001
         vertex -1.000000e+001 -2.692893e+001 -8.071068e+000
      endloop
   endfacet
   facet normal -1.000000e+000 0.000000e+000 0.000000e+000
      outer loop
         vertex -1.000000e+001 -2.692893e+001 -8.071068e+000
         vertex -1.000000e+001 -2.292893e+001 -1.207107e+001
         vertex -1.000000e+001 -2.391239e+001 -1.293353e+001
      endloop
   endfacet
   facet normal -1.000000e+000 0.000000e+000 0.000000e+000
      outer loop
         vertex -1.000000e+001 -2.692893e+001 -8.071068e+000
         vertex -1.000000e+001 -2.391239e+001 -1.293353e+001
         vertex -1.000000e+001 -2.791239e+001 -8.933533e+000
      endloop
   endfacet
   facet normal -1.000000e+000 0.000000e+000 0.000000e+000
      outer loop
         vertex -1.000000e+001 -2.791239e+001 -8.933533e+000
         vertex -1.000000e+001 -2.391239e+001 -1.293353e+001
         vertex -1.000000e+001 -2.500000e+001 -1.366025e+001
      endloop
   endfacet
   facet normal -1.000000e+000 0.000000e+000 0.000000e+000
      outer loop
         vertex -1.000000e+001 -2.791239e+001 -8.933533e+000
         vertex -1.000000e+001 -2.500000e+001 -1.366025e+001
         vertex -1.000000e+001 -2.900000e+001 -9.660254e+000
      endloop
   endfacet
   facet normal -1.000000e+000 0.000000e+000 0.000000e+000
      outer loop
         vertex -1.000000e+001 -2.900000e+001 -9.660254e+000
         vertex -1.000000e+001 -2.500000e+001 -1.366025e+001
         vertex -1.000000e+001 -2.617316e+001 -1.423880e+001
      endloop
   endfacet
   facet normal -1.000000e+000 0.000000e+000 0.000000e+000
      outer loop
         vertex -1.000000e+001 -2.900000e+001 -9.660254e+000
         vertex -1.000000e+001 -2.617316e+001 -1.423880e+001
         vertex -1.000000e+001 -2.741181e+001 -1.465926e+001
      endloop
   endfacet
   facet normal -1.000000e+000 0.000000e+000 0.000000e+000
      outer loop
         vertex -1.000000e+001 -4.258819e+001 -1.065926e+001
         vertex -1.000000e+001 -4.400000e+001 -1.500000e+001
         vertex -1.000000e+001 -4.382683e+001 -1.023880e+001
      endloop
   endfacet
   facet normal -1.000000e+000 0.000000e+000 0.000000e+000
      outer loop
         vertex -1.000000e+001 -4.382683e+001 -1.023880e+001
         vertex -1.000000e+001 -4.400000e+001 -1.500000e+001
         vertex -1.000000e+001 -4.530526e+001 -1.491445e+001
      endloop
   endfacet
   facet normal -1.000000e+000 0.000000e+000 0.000000e+000
      outer loop
         vertex -1.000000e+001 -4.382683e+001 -1.023880e+001
         vertex -1.000000e+001 -4.530526e+001 -1.491445e+001
         vertex -1.000000e+001 -4.658819e+001 -1.465926e+001
      endloop
   endfacet
   facet normal -1.000000e+000 0.000000e+000 0.000000e+000
      outer loop
         vertex -1.000000e+001 -4.258819e+001 -1.065926e+001
         vertex -1.000000e+001 -4.130526e+001 -1.091445e+001
         vertex -1.000000e+001 -4.400000e+001 -1.500000e+001
      endloop
   endfacet
   facet normal -1.000000e+000 0.000000e+000 0.000000e+000
      outer loop
         vertex -1.000000e+001 -4.400000e+001 -1.500000e+001
         vertex -1.000000e+001 -4.130526e+001 -1.091445e+001
         vertex -1.000000e+001 -4.000000e+001 -1.100000e+001
      endloop
   endfacet
   facet normal -1.000000e+000 0.000000e+000 0.000000e+000
      outer loop
         vertex -1.000000e+001 -4.400000e+001 -1.500000e+001
         vertex -1.000000e+001 -4.000000e+001 -1.100000e+001
         vertex -1.000000e+001 -3.000000e+001 -1.500000e+001
      endloop
   endfacet
   facet normal -1.000000e+000 0.000000e+000 0.000000e+000
      outer loop
         vertex -1.000000e+001 -3.000000e+001 -1.500000e+001
         vertex -1.000000e+001 -4.000000e+001 -1.100000e+001
         vertex -1.000000e+001 -3.400000e+001 -1.100000e+001
      endloop
   endfacet
   facet normal -1.000000e+000 0.000000e+000 0.000000e+000
      outer loop
         vertex -1.000000e+001 -3.000000e+001 -1.500000e+001
         vertex -1.000000e+001 -3.400000e+001 -1.100000e+001
         vertex -1.000000e+001 -3.269474e+001 -1.091445e+001
      endloop
   endfacet
   facet normal 0.000000e+000 0.000000e+000 1.000000e+000
      outer loop
         vertex -1.000000e+001 2.000000e+000 4.500000e+001
         vertex -1.000000e+001 -2.400000e+001 4.500000e+001
         vertex 1.000000e+001 2.000000e+000 4.500000e+001
      endloop
   endfacet
   facet normal 0.000000e+000 0.000000e+000 1.000000e+000
      outer loop
         vertex 1.000000e+001 2.000000e+000 4.500000e+001
         vertex -1.000000e+001 -2.400000e+001 4.500000e+001
         vertex 1.000000e+001 -2.400000e+001 4.500000e+001
      endloop
   endfacet
   facet normal 0.000000e+000 0.000000e+000 -1.000000e+000
      outer loop
         vertex -1.000000e+001 -2.000000e+000 0.000000e+000
         vertex -1.000000e+001 2.000000e+000 0.000000e+000
         vertex 1.000000e+001 -2.000000e+000 0.000000e+000
      endloop
   endfacet
   facet normal 0.000000e+000 0.000000e+000 -1.000000e+000
      outer loop
         vertex 1.000000e+001 -2.000000e+000 0.000000e+000
         vertex -1.000000e+001 2.000000e+000 0.000000e+000
         vertex 1.000000e+001 2.000000e+000 0.000000e+000
      endloop
   endfacet
   facet normal 0.000000e+000 0.000000e+000 -1.000000e+000
      outer loop
         vertex 1.000000e+001 -2.000000e+001 4.100000e+001
         vertex -1.000000e+001 -2.000000e+001 4.100000e+001
         vertex 1.000000e+001 -2.000000e+000 4.100000e+001
      endloop
   endfacet
   facet normal 0.000000e+000 0.000000e+000 -1.000000e+000
      outer loop
         vertex 1.000000e+001 -2.000000e+000 4.100000e+001
         vertex -1.000000e+001 -2.000000e+001 4.100000e+001
         vertex -1.000000e+001 -2.000000e+000 4.100000e+001
      endloop
   endfacet
   facet normal 1.734723e-016 1.000000e+000 2.507721e-032
      outer loop
         vertex -1.000000e+001 -2.000000e+001 -5.000000e+000
         vertex -1.000000e+001 -2.000000e+001 4.100000e+001
         vertex 1.000000e+001 -2.000000e+001 -5.000000e+000
      endloop
   endfacet
   facet normal 1.734723e-016 1.000000e+000 2.507721e-032
      outer loop
         vertex 1.000000e+001 -2.000000e+001 -5.000000e+000
         vertex -1.000000e+001 -2.000000e+001 4.100000e+001
         vertex 1.000000e+001 -2.000000e+001 4.100000e+001
      endloop
   endfacet
   facet normal 0.000000e+000 7.523164e-032 -1.000000e+000
      outer loop
         vertex 1.000000e+001 -3.000000e+001 -1.500000e+001
         vertex 1.000000e+001 -4.400000e+001 -1.500000e+001
         vertex -1.000000e+001 -3.000000e+001 -1.500000e+001
      endloop
   endfacet
   facet normal 0.000000e+000 7.523164e-032 -1.000000e+000
      outer loop
         vertex -1.000000e+001 -3.000000e+001 -1.500000e+001
         vertex 1.000000e+001 -4.400000e+001 -1.500000e+001
         vertex -1.000000e+001 -4.400000e+001 -1.500000e+001
      endloop
   endfacet
   facet normal -1.734723e-016 -1.000000e+000 -2.507721e-032
      outer loop
         vertex 1.000000e+001 -2.400000e+001 -1.000000e+000
         vertex 1.000000e+001 -2.400000e+001 4.500000e+001
         vertex -1.000000e+001 -2.400000e+001 -1.000000e+000
      endloop
   endfacet
   facet normal -1.734723e-016 -1.000000e+000 -2.507721e-032
      outer loop
         vertex -1.000000e+001 -2.400000e+001 -1.000000e+000
         vertex 1.000000e+001 -2.400000e+001 4.500000e+001
         vertex -1.000000e+001 -2.400000e+001 4.500000e+001
      endloop
   endfacet
   facet normal -1.734723e-016 -1.000000e+000 0.000000e+000
      outer loop
         vertex -3.826834e+000 -5.400000e+001 1.823880e+001
         vertex -5.000000e+000 -5.400000e+001 1.766026e+001
         vertex 1.000000e+001 -5.400000e+001 9.000000e+000
      endloop
   endfacet
   facet normal -1.734723e-016 -1.000000e+000 0.000000e+000
      outer loop
         vertex 9.914449e+000 -5.400000e+001 1.030526e+001
         vertex 9.659259e+000 -5.400000e+001 1.158819e+001
         vertex -1.305262e+000 -5.400000e+001 1.891445e+001
      endloop
   endfacet
   facet normal -1.734723e-016 -1.000000e+000 0.000000e+000
      outer loop
         vertex 9.914449e+000 -5.400000e+001 1.030526e+001
         vertex -1.305262e+000 -5.400000e+001 1.891445e+001
         vertex 1.000000e+001 -5.400000e+001 9.000000e+000
      endloop
   endfacet
   facet normal -1.734723e-016 -1.000000e+000 0.000000e+000
      outer loop
         vertex 1.000000e+001 -5.400000e+001 9.000000e+000
         vertex -1.305262e+000 -5.400000e+001 1.891445e+001
         vertex -2.588190e+000 -5.400000e+001 1.865926e+001
      endloop
   endfacet
   facet normal -1.734723e-016 -1.000000e+000 0.000000e+000
      outer loop
         vertex 1.000000e+001 -5.400000e+001 9.000000e+000
         vertex -2.588190e+000 -5.400000e+001 1.865926e+001
         vertex -3.826834e+000 -5.400000e+001 1.823880e+001
      endloop
   endfacet
   facet normal -1.734723e-016 -1.000000e+000 0.000000e+000
      outer loop
         vertex 9.659259e+000 -5.400000e+001 1.158819e+001
         vertex 9.238795e+000 -5.400000e+001 1.282683e+001
         vertex -1.305262e+000 -5.400000e+001 1.891445e+001
      endloop
   endfacet
   facet normal -1.734723e-016 -1.000000e+000 0.000000e+000
      outer loop
         vertex -1.305262e+000 -5.400000e+001 1.891445e+001
         vertex 9.238795e+000 -5.400000e+001 1.282683e+001
         vertex 8.660254e+000 -5.400000e+001 1.400000e+001
      endloop
   endfacet
   facet normal -1.734723e-016 -1.000000e+000 0.000000e+000
      outer loop
         vertex -1.305262e+000 -5.400000e+001 1.891445e+001
         vertex 8.660254e+000 -5.400000e+001 1.400000e+001
         vertex 7.933534e+000 -5.400000e+001 1.508761e+001
      endloop
   endfacet
   facet normal -1.734723e-016 -1.000000e+000 0.000000e+000
      outer loop
         vertex 7.933534e+000 -5.400000e+001 1.508761e+001
         vertex 7.071068e+000 -5.400000e+001 1.607107e+001
         vertex -1.305262e+000 -5.400000e+001 1.891445e+001
      endloop
   endfacet
   facet normal -1.734723e-016 -1.000000e+000 0.000000e+000
      outer loop
         vertex -1.305262e+000 -5.400000e+001 1.891445e+001
         vertex 7.071068e+000 -5.400000e+001 1.607107e+001
         vertex 6.087614e+000 -5.400000e+001 1.693353e+001
      endloop
   endfacet
   facet normal -1.734723e-016 -1.000000e+000 0.000000e+000
      outer loop
         vertex -1.305262e+000 -5.400000e+001 1.891445e+001
         vertex 6.087614e+000 -5.400000e+001 1.693353e+001
         vertex 3.469447e-015 -5.400000e+001 1.900000e+001
      endloop
   endfacet
   facet normal -1.734723e-016 -1.000000e+000 0.000000e+000
      outer loop
         vertex 3.469447e-015 -5.400000e+001 1.900000e+001
         vertex 6.087614e+000 -5.400000e+001 1.693353e+001
         vertex 1.305262e+000 -5.400000e+001 1.891445e+001
      endloop
   endfacet
   facet normal -1.734723e-016 -1.000000e+000 0.000000e+000
      outer loop
         vertex -5.000000e+000 -5.400000e+001 1.766026e+001
         vertex -6.087614e+000 -5.400000e+001 1.693353e+001
         vertex 1.000000e+001 -5.400000e+001 9.000000e+000
      endloop
   endfacet
   facet normal -1.734723e-016 -1.000000e+000 0.000000e+000
      outer loop
         vertex 1.000000e+001 -5.400000e+001 9.000000e+000
         vertex -6.087614e+000 -5.400000e+001 1.693353e+001
         vertex -7.071068e+000 -5.400000e+001 1.607107e+001
      endloop
   endfacet
   facet normal -1.734723e-016 -1.000000e+000 0.000000e+000
      outer loop
         vertex 1.000000e+001 -5.400000e+001 9.000000e+000
         vertex -7.071068e+000 -5.400000e+001 1.607107e+001
         vertex -7.933534e+000 -5.400000e+001 1.508761e+001
      endloop
   endfacet
   facet normal -1.734723e-016 -1.000000e+000 0.000000e+000
      outer loop
         vertex -7.933534e+000 -5.400000e+001 1.508761e+001
         vertex -8.660254e+000 -5.400000e+001 1.400000e+001
         vertex 1.000000e+001 -5.400000e+001 9.000000e+000
      endloop
   endfacet
   facet normal -1.734723e-016 -1.000000e+000 0.000000e+000
      outer loop
         vertex 1.000000e+001 -5.400000e+001 9.000000e+000
         vertex -8.660254e+000 -5.400000e+001 1.400000e+001
         vertex -9.238795e+000 -5.400000e+001 1.282683e+001
      endloop
   endfacet
   facet normal -1.734723e-016 -1.000000e+000 0.000000e+000
      outer loop
         vertex 1.000000e+001 -5.400000e+001 9.000000e+000
         vertex -9.238795e+000 -5.400000e+001 1.282683e+001
         vertex -9.659259e+000 -5.400000e+001 1.158819e+001
      endloop
   endfacet
   facet normal -1.734723e-016 -1.000000e+000 0.000000e+000
      outer loop
         vertex 1.305262e+000 -5.400000e+001 1.891445e+001
         vertex 6.087614e+000 -5.400000e+001 1.693353e+001
         vertex 2.588190e+000 -5.400000e+001 1.865926e+001
      endloop
   endfacet
   facet normal -1.734723e-016 -1.000000e+000 0.000000e+000
      outer loop
         vertex 2.588190e+000 -5.400000e+001 1.865926e+001
         vertex 6.087614e+000 -5.400000e+001 1.693353e+001
         vertex 5.000000e+000 -5.400000e+001 1.766026e+001
      endloop
   endfacet
   facet normal -1.734723e-016 -1.000000e+000 0.000000e+000
      outer loop
         vertex 2.588190e+000 -5.400000e+001 1.865926e+001
         vertex 5.000000e+000 -5.400000e+001 1.766026e+001
         vertex 3.826834e+000 -5.400000e+001 1.823880e+001
      endloop
   endfacet
   facet normal -1.734723e-016 -1.000000e+000 0.000000e+000
      outer loop
         vertex -1.000000e+001 -5.400000e+001 -5.000000e+000
         vertex 1.000000e+001 -5.400000e+001 -5.000000e+000
         vertex -1.000000e+001 -5.400000e+001 9.000000e+000
      endloop
   endfacet
   facet normal -1.734723e-016 -1.000000e+000 0.000000e+000
      outer loop
         vertex -1.000000e+001 -5.400000e+001 9.000000e+000
         vertex 1.000000e+001 -5.400000e+001 -5.000000e+000
         vertex 1.000000e+001 -5.400000e+001 9.000000e+000
      endloop
   endfacet
   facet normal -1.734723e-016 -1.000000e+000 0.000000e+000
      outer loop
         vertex -1.000000e+001 -5.400000e+001 9.000000e+000
         vertex 1.000000e+001 -5.400000e+001 9.000000e+000
         vertex -9.914449e+000 -5.400000e+001 1.030526e+001
      endloop
   endfacet
   facet normal -1.734723e-016 -1.000000e+000 0.000000e+000
      outer loop
         vertex -9.914449e+000 -5.400000e+001 1.030526e+001
         vertex 1.000000e+001 -5.400000e+001 9.000000e+000
         vertex -9.659259e+000 -5.400000e+001 1.158819e+001
      endloop
   endfacet
   facet normal 0.000000e+000 1.000000e+000 0.000000e+000
      outer loop
         vertex 1.000000e+001 -5.000000e+001 -1.000000e+000
         vertex -1.000000e+001 -5.000000e+001 -1.000000e+000
         vertex 1.000000e+001 -5.000000e+001 9.000000e+000
      endloop
   endfacet
   facet normal 0.000000e+000 1.000000e+000 0.000000e+000
      outer loop
         vertex 1.000000e+001 -5.000000e+001 9.000000e+000
         vertex -1.000000e+001 -5.000000e+001 -1.000000e+000
         vertex -1.000000e+001 -5.000000e+001 9.000000e+000
      endloop
   endfacet
   facet normal 0.000000e+000 1.000000e+000 0.000000e+000
      outer loop
         vertex 9.659259e+000 -5.000000e+001 1.158819e+001
         vertex 9.914449e+000 -5.000000e+001 1.030526e+001
         vertex -1.305262e+000 -5.000000e+001 1.891445e+001
      endloop
   endfacet
   facet normal 0.000000e+000 1.000000e+000 0.000000e+000
      outer loop
         vertex -1.305262e+000 -5.000000e+001 1.891445e+001
         vertex 9.914449e+000 -5.000000e+001 1.030526e+001
         vertex 1.000000e+001 -5.000000e+001 9.000000e+000
      endloop
   endfacet
   facet normal 0.000000e+000 1.000000e+000 0.000000e+000
      outer loop
         vertex -1.305262e+000 -5.000000e+001 1.891445e+001
         vertex 1.000000e+001 -5.000000e+001 9.000000e+000
         vertex -2.588190e+000 -5.000000e+001 1.865926e+001
      endloop
   endfacet
   facet normal 0.000000e+000 1.000000e+000 0.000000e+000
      outer loop
         vertex -2.588190e+000 -5.000000e+001 1.865926e+001
         vertex 1.000000e+001 -5.000000e+001 9.000000e+000
         vertex -3.826834e+000 -5.000000e+001 1.823880e+001
      endloop
   endfacet
   facet normal 0.000000e+000 1.000000e+000 0.000000e+000
      outer loop
         vertex -7.071068e+000 -5.000000e+001 1.607107e+001
         vertex -6.087614e+000 -5.000000e+001 1.693353e+001
         vertex 1.000000e+001 -5.000000e+001 9.000000e+000
      endloop
   endfacet
   facet normal 0.000000e+000 1.000000e+000 0.000000e+000
      outer loop
         vertex 1.000000e+001 -5.000000e+001 9.000000e+000
         vertex -6.087614e+000 -5.000000e+001 1.693353e+001
         vertex -5.000000e+000 -5.000000e+001 1.766026e+001
      endloop
   endfacet
   facet normal 0.000000e+000 1.000000e+000 0.000000e+000
      outer loop
         vertex 1.000000e+001 -5.000000e+001 9.000000e+000
         vertex -5.000000e+000 -5.000000e+001 1.766026e+001
         vertex -3.826834e+000 -5.000000e+001 1.823880e+001
      endloop
   endfacet
   facet normal 0.000000e+000 1.000000e+000 0.000000e+000
      outer loop
         vertex 7.071068e+000 -5.000000e+001 1.607107e+001
         vertex 7.933534e+000 -5.000000e+001 1.508761e+001
         vertex 8.660254e+000 -5.000000e+001 1.400000e+001
      endloop
   endfacet
   facet normal 0.000000e+000 1.000000e+000 0.000000e+000
      outer loop
         vertex -1.000000e+001 -5.000000e+001 9.000000e+000
         vertex -9.914449e+000 -5.000000e+001 1.030526e+001
         vertex 1.000000e+001 -5.000000e+001 9.000000e+000
      endloop
   endfacet
   facet normal 0.000000e+000 1.000000e+000 0.000000e+000
      outer loop
         vertex 1.000000e+001 -5.000000e+001 9.000000e+000
         vertex -9.914449e+000 -5.000000e+001 1.030526e+001
         vertex -9.659259e+000 -5.000000e+001 1.158819e+001
      endloop
   endfacet
   facet normal 0.000000e+000 1.000000e+000 0.000000e+000
      outer loop
         vertex 1.000000e+001 -5.000000e+001 9.000000e+000
         vertex -9.659259e+000 -5.000000e+001 1.158819e+001
         vertex -9.238795e+000 -5.000000e+001 1.282683e+001
      endloop
   endfacet
   facet normal 0.000000e+000 1.000000e+000 0.000000e+000
      outer loop
         vertex -9.238795e+000 -5.000000e+001 1.282683e+001
         vertex -8.660254e+000 -5.000000e+001 1.400000e+001
         vertex 1.000000e+001 -5.000000e+001 9.000000e+000
      endloop
   endfacet
   facet normal 0.000000e+000 1.000000e+000 0.000000e+000
      outer loop
         vertex 1.000000e+001 -5.000000e+001 9.000000e+000
         vertex -8.660254e+000 -5.000000e+001 1.400000e+001
         vertex -7.933534e+000 -5.000000e+001 1.508761e+001
      endloop
   endfacet
   facet normal 0.000000e+000 1.000000e+000 0.000000e+000
      outer loop
         vertex 1.000000e+001 -5.000000e+001 9.000000e+000
         vertex -7.933534e+000 -5.000000e+001 1.508761e+001
         vertex -7.071068e+000 -5.000000e+001 1.607107e+001
      endloop
   endfacet
   facet normal 0.000000e+000 1.000000e+000 0.000000e+000
      outer loop
         vertex -1.305262e+000 -5.000000e+001 1.891445e+001
         vertex 3.469447e-015 -5.000000e+001 1.900000e+001
         vertex 9.659259e+000 -5.000000e+001 1.158819e+001
      endloop
   endfacet
   facet normal 0.000000e+000 1.000000e+000 0.000000e+000
      outer loop
         vertex 9.659259e+000 -5.000000e+001 1.158819e+001
         vertex 3.469447e-015 -5.000000e+001 1.900000e+001
         vertex 1.305262e+000 -5.000000e+001 1.891445e+001
      endloop
   endfacet
   facet normal 0.000000e+000 1.000000e+000 0.000000e+000
      outer loop
         vertex 9.659259e+000 -5.000000e+001 1.158819e+001
         vertex 1.305262e+000 -5.000000e+001 1.891445e+001
         vertex 2.588190e+000 -5.000000e+001 1.865926e+001
      endloop
   endfacet
   facet normal 0.000000e+000 1.000000e+000 0.000000e+000
      outer loop
         vertex 7.071068e+000 -5.000000e+001 1.607107e+001
         vertex 8.660254e+000 -5.000000e+001 1.400000e+001
         vertex 6.087614e+000 -5.000000e+001 1.693353e+001
      endloop
   endfacet
   facet normal 0.000000e+000 1.000000e+000 0.000000e+000
      outer loop
         vertex 6.087614e+000 -5.000000e+001 1.693353e+001
         vertex 8.660254e+000 -5.000000e+001 1.400000e+001
         vertex 9.238795e+000 -5.000000e+001 1.282683e+001
      endloop
   endfacet
   facet normal 0.000000e+000 1.000000e+000 0.000000e+000
      outer loop
         vertex 6.087614e+000 -5.000000e+001 1.693353e+001
         vertex 9.238795e+000 -5.000000e+001 1.282683e+001
         vertex 9.659259e+000 -5.000000e+001 1.158819e+001
      endloop
   endfacet
   facet normal 0.000000e+000 1.000000e+000 0.000000e+000
      outer loop
         vertex 2.588190e+000 -5.000000e+001 1.865926e+001
         vertex 3.826834e+000 -5.000000e+001 1.823880e+001
         vertex 9.659259e+000 -5.000000e+001 1.158819e+001
      endloop
   endfacet
   facet normal 0.000000e+000 1.000000e+000 0.000000e+000
      outer loop
         vertex 9.659259e+000 -5.000000e+001 1.158819e+001
         vertex 3.826834e+000 -5.000000e+001 1.823880e+001
         vertex 5.000000e+000 -5.000000e+001 1.766026e+001
      endloop
   endfacet
   facet normal 0.000000e+000 1.000000e+000 0.000000e+000
      outer loop
         vertex 9.659259e+000 -5.000000e+001 1.158819e+001
         vertex 5.000000e+000 -5.000000e+001 1.766026e+001
         vertex 6.087614e+000 -5.000000e+001 1.693353e+001
      endloop
   endfacet
   facet normal 9.990495e-001 0.000000e+000 4.359168e-002
      outer loop
         vertex 1.000000e+001 -5.400000e+001 9.000000e+000
         vertex 1.000000e+001 -5.000000e+001 9.000000e+000
         vertex 9.914449e+000 -5.000000e+001 1.030526e+001
      endloop
   endfacet
   facet normal 9.961922e-001 0.000000e+000 8.718336e-002
      outer loop
         vertex 1.000000e+001 -5.400000e+001 9.000000e+000
         vertex 9.914449e+000 -5.000000e+001 1.030526e+001
         vertex 9.914449e+000 -5.400000e+001 1.030526e+001
      endloop
   endfacet
   facet normal 9.848126e-001 0.000000e+000 1.736209e-001
      outer loop
         vertex 9.914449e+000 -5.400000e+001 1.030526e+001
         vertex 9.914449e+000 -5.000000e+001 1.030526e+001
         vertex 9.659259e+000 -5.000000e+001 1.158819e+001
      endloop
   endfacet
   facet normal 9.762900e-001 0.000000e+000 2.164667e-001
      outer loop
         vertex 9.914449e+000 -5.400000e+001 1.030526e+001
         vertex 9.659259e+000 -5.000000e+001 1.158819e+001
         vertex 9.659259e+000 -5.400000e+001 1.158819e+001
      endloop
   endfacet
   facet normal 9.537253e-001 0.000000e+000 3.006794e-001
      outer loop
         vertex 9.659259e+000 -5.400000e+001 1.158819e+001
         vertex 9.659259e+000 -5.000000e+001 1.158819e+001
         vertex 9.238795e+000 -5.000000e+001 1.282683e+001
      endloop
   endfacet
   facet normal 9.396831e-001 0.000000e+000 3.420462e-001
      outer loop
         vertex 9.659259e+000 -5.400000e+001 1.158819e+001
         vertex 9.238795e+000 -5.000000e+001 1.282683e+001
         vertex 9.238795e+000 -5.400000e+001 1.282683e+001
      endloop
   endfacet
   facet normal 9.063195e-001 0.000000e+000 4.225931e-001
      outer loop
         vertex 9.238795e+000 -5.400000e+001 1.282683e+001
         vertex 9.238795e+000 -5.000000e+001 1.282683e+001
         vertex 8.660254e+000 -5.000000e+001 1.400000e+001
      endloop
   endfacet
   facet normal 8.869980e-001 0.000000e+000 4.617732e-001
      outer loop
         vertex 9.238795e+000 -5.400000e+001 1.282683e+001
         vertex 8.660254e+000 -5.000000e+001 1.400000e+001
         vertex 8.660254e+000 -5.400000e+001 1.400000e+001
      endloop
   endfacet
   facet normal 8.434063e-001 0.000000e+000 5.372763e-001
      outer loop
         vertex 8.660254e+000 -5.400000e+001 1.400000e+001
         vertex 8.660254e+000 -5.000000e+001 1.400000e+001
         vertex 7.933534e+000 -5.000000e+001 1.508761e+001
      endloop
   endfacet
   facet normal 8.191361e-001 0.000000e+000 5.735992e-001
      outer loop
         vertex 8.660254e+000 -5.400000e+001 1.400000e+001
         vertex 7.933534e+000 -5.000000e+001 1.508761e+001
         vertex 7.933534e+000 -5.400000e+001 1.508761e+001
      endloop
   endfacet
   facet normal 7.660623e-001 0.000000e+000 6.427664e-001
      outer loop
         vertex 7.933534e+000 -5.400000e+001 1.508761e+001
         vertex 7.933534e+000 -5.000000e+001 1.508761e+001
         vertex 7.071068e+000 -5.000000e+001 1.607107e+001
      endloop
   endfacet
   facet normal 7.372586e-001 0.000000e+000 6.756107e-001
      outer loop
         vertex 7.933534e+000 -5.400000e+001 1.508761e+001
         vertex 7.071068e+000 -5.000000e+001 1.607107e+001
         vertex 7.071068e+000 -5.400000e+001 1.607107e+001
      endloop
   endfacet
   facet normal 6.756107e-001 0.000000e+000 7.372586e-001
      outer loop
         vertex 7.071068e+000 -5.400000e+001 1.607107e+001
         vertex 7.071068e+000 -5.000000e+001 1.607107e+001
         vertex 6.087614e+000 -5.000000e+001 1.693353e+001
      endloop
   endfacet
   facet normal 6.427664e-001 0.000000e+000 7.660623e-001
      outer loop
         vertex 7.071068e+000 -5.400000e+001 1.607107e+001
         vertex 6.087614e+000 -5.000000e+001 1.693353e+001
         vertex 6.087614e+000 -5.400000e+001 1.693353e+001
      endloop
   endfacet
   facet normal 5.735992e-001 0.000000e+000 8.191361e-001
      outer loop
         vertex 6.087614e+000 -5.400000e+001 1.693353e+001
         vertex 6.087614e+000 -5.000000e+001 1.693353e+001
         vertex 5.000000e+000 -5.000000e+001 1.766026e+001
      endloop
   endfacet
   facet normal 5.372762e-001 0.000000e+000 8.434064e-001
      outer loop
         vertex 6.087614e+000 -5.400000e+001 1.693353e+001
         vertex 5.000000e+000 -5.000000e+001 1.766026e+001
         vertex 5.000000e+000 -5.400000e+001 1.766026e+001
      endloop
   endfacet
   facet normal 4.617732e-001 0.000000e+000 8.869980e-001
      outer loop
         vertex 5.000000e+000 -5.400000e+001 1.766026e+001
         vertex 5.000000e+000 -5.000000e+001 1.766026e+001
         vertex 3.826834e+000 -5.000000e+001 1.823880e+001
      endloop
   endfacet
   facet normal 4.225931e-001 0.000000e+000 9.063195e-001
      outer loop
         vertex 5.000000e+000 -5.400000e+001 1.766026e+001
         vertex 3.826834e+000 -5.000000e+001 1.823880e+001
         vertex 3.826834e+000 -5.400000e+001 1.823880e+001
      endloop
   endfacet
   facet normal 3.420462e-001 0.000000e+000 9.396831e-001
      outer loop
         vertex 3.826834e+000 -5.400000e+001 1.823880e+001
         vertex 3.826834e+000 -5.000000e+001 1.823880e+001
         vertex 2.588190e+000 -5.000000e+001 1.865926e+001
      endloop
   endfacet
   facet normal 3.006794e-001 0.000000e+000 9.537253e-001
      outer loop
         vertex 3.826834e+000 -5.400000e+001 1.823880e+001
         vertex 2.588190e+000 -5.000000e+001 1.865926e+001
         vertex 2.588190e+000 -5.400000e+001 1.865926e+001
      endloop
   endfacet
   facet normal 2.164667e-001 0.000000e+000 9.762900e-001
      outer loop
         vertex 2.588190e+000 -5.400000e+001 1.865926e+001
         vertex 2.588190e+000 -5.000000e+001 1.865926e+001
         vertex 1.305262e+000 -5.000000e+001 1.891445e+001
      endloop
   endfacet
   facet normal 1.736209e-001 0.000000e+000 9.848126e-001
      outer loop
         vertex 2.588190e+000 -5.400000e+001 1.865926e+001
         vertex 1.305262e+000 -5.000000e+001 1.891445e+001
         vertex 1.305262e+000 -5.400000e+001 1.891445e+001
      endloop
   endfacet
   facet normal 8.718336e-002 0.000000e+000 9.961922e-001
      outer loop
         vertex 1.305262e+000 -5.400000e+001 1.891445e+001
         vertex 1.305262e+000 -5.000000e+001 1.891445e+001
         vertex 3.469447e-015 -5.000000e+001 1.900000e+001
      endloop
   endfacet
   facet normal 4.359168e-002 0.000000e+000 9.990495e-001
      outer loop
         vertex 1.305262e+000 -5.400000e+001 1.891445e+001
         vertex 3.469447e-015 -5.000000e+001 1.900000e+001
         vertex 3.469447e-015 -5.400000e+001 1.900000e+001
      endloop
   endfacet
   facet normal -9.990495e-001 0.000000e+000 4.359168e-002
      outer loop
         vertex -1.000000e+001 -5.000000e+001 9.000000e+000
         vertex -1.000000e+001 -5.400000e+001 9.000000e+000
         vertex -9.914449e+000 -5.400000e+001 1.030526e+001
      endloop
   endfacet
   facet normal -9.961922e-001 0.000000e+000 8.718336e-002
      outer loop
         vertex -1.000000e+001 -5.000000e+001 9.000000e+000
         vertex -9.914449e+000 -5.400000e+001 1.030526e+001
         vertex -9.914449e+000 -5.000000e+001 1.030526e+001
      endloop
   endfacet
   facet normal -9.848126e-001 0.000000e+000 1.736209e-001
      outer loop
         vertex -9.914449e+000 -5.000000e+001 1.030526e+001
         vertex -9.914449e+000 -5.400000e+001 1.030526e+001
         vertex -9.659259e+000 -5.400000e+001 1.158819e+001
      endloop
   endfacet
   facet normal -9.762900e-001 0.000000e+000 2.164667e-001
      outer loop
         vertex -9.914449e+000 -5.000000e+001 1.030526e+001
         vertex -9.659259e+000 -5.400000e+001 1.158819e+001
         vertex -9.659259e+000 -5.000000e+001 1.158819e+001
      endloop
   endfacet
   facet normal -9.537253e-001 0.000000e+000 3.006794e-001
      outer loop
         vertex -9.659259e+000 -5.000000e+001 1.158819e+001
         vertex -9.659259e+000 -5.400000e+001 1.158819e+001
         vertex -9.238795e+000 -5.400000e+001 1.282683e+001
      endloop
   endfacet
   facet normal -9.396831e-001 0.000000e+000 3.420462e-001
      outer loop
         vertex -9.659259e+000 -5.000000e+001 1.158819e+001
         vertex -9.238795e+000 -5.400000e+001 1.282683e+001
         vertex -9.238795e+000 -5.000000e+001 1.282683e+001
      endloop
   endfacet
   facet normal -9.063195e-001 0.000000e+000 4.225931e-001
      outer loop
         vertex -9.238795e+000 -5.000000e+001 1.282683e+001
         vertex -9.238795e+000 -5.400000e+001 1.282683e+001
         vertex -8.660254e+000 -5.400000e+001 1.400000e+001
      endloop
   endfacet
   facet normal -8.869980e-001 0.000000e+000 4.617732e-001
      outer loop
         vertex -9.238795e+000 -5.000000e+001 1.282683e+001
         vertex -8.660254e+000 -5.400000e+001 1.400000e+001
         vertex -8.660254e+000 -5.000000e+001 1.400000e+001
      endloop
   endfacet
   facet normal -8.434063e-001 0.000000e+000 5.372763e-001
      outer loop
         vertex -8.660254e+000 -5.000000e+001 1.400000e+001
         vertex -8.660254e+000 -5.400000e+001 1.400000e+001
         vertex -7.933534e+000 -5.400000e+001 1.508761e+001
      endloop
   endfacet
   facet normal -8.191361e-001 0.000000e+000 5.735992e-001
      outer loop
         vertex -8.660254e+000 -5.000000e+001 1.400000e+001
         vertex -7.933534e+000 -5.400000e+001 1.508761e+001
         vertex -7.933534e+000 -5.000000e+001 1.508761e+001
      endloop
   endfacet
   facet normal -7.660623e-001 0.000000e+000 6.427664e-001
      outer loop
         vertex -7.933534e+000 -5.000000e+001 1.508761e+001
         vertex -7.933534e+000 -5.400000e+001 1.508761e+001
         vertex -7.071068e+000 -5.400000e+001 1.607107e+001
      endloop
   endfacet
   facet normal -7.372586e-001 0.000000e+000 6.756107e-001
      outer loop
         vertex -7.933534e+000 -5.000000e+001 1.508761e+001
         vertex -7.071068e+000 -5.400000e+001 1.607107e+001
         vertex -7.071068e+000 -5.000000e+001 1.607107e+001
      endloop
   endfacet
   facet normal -6.756107e-001 0.000000e+000 7.372586e-001
      outer loop
         vertex -7.071068e+000 -5.000000e+001 1.607107e+001
         vertex -7.071068e+000 -5.400000e+001 1.607107e+001
         vertex -6.087614e+000 -5.400000e+001 1.693353e+001
      endloop
   endfacet
   facet normal -6.427664e-001 0.000000e+000 7.660623e-001
      outer loop
         vertex -7.071068e+000 -5.000000e+001 1.607107e+001
         vertex -6.087614e+000 -5.400000e+001 1.693353e+001
         vertex -6.087614e+000 -5.000000e+001 1.693353e+001
      endloop
   endfacet
   facet normal -5.735992e-001 0.000000e+000 8.191361e-001
      outer loop
         vertex -6.087614e+000 -5.000000e+001 1.693353e+001
         vertex -6.087614e+000 -5.400000e+001 1.693353e+001
         vertex -5.000000e+000 -5.400000e+001 1.766026e+001
      endloop
   endfacet
   facet normal -5.372762e-001 0.000000e+000 8.434064e-001
      outer loop
         vertex -6.087614e+000 -5.000000e+001 1.693353e+001
         vertex -5.000000e+000 -5.400000e+001 1.766026e+001
         vertex -5.000000e+000 -5.000000e+001 1.766026e+001
      endloop
   endfacet
   facet normal -4.617732e-001 0.000000e+000 8.869980e-001
      outer loop
         vertex -5.000000e+000 -5.000000e+001 1.766026e+001
         vertex -5.000000e+000 -5.400000e+001 1.766026e+001
         vertex -3.826834e+000 -5.400000e+001 1.823880e+001
      endloop
   endfacet
   facet normal -4.225931e-001 0.000000e+000 9.063195e-001
      outer loop
         vertex -5.000000e+000 -5.000000e+001 1.766026e+001
         vertex -3.826834e+000 -5.400000e+001 1.823880e+001
         vertex -3.826834e+000 -5.000000e+001 1.823880e+001
      endloop
   endfacet
   facet normal -3.420462e-001 0.000000e+000 9.396831e-001
      outer loop
         vertex -3.826834e+000 -5.000000e+001 1.823880e+001
         vertex -3.826834e+000 -5.400000e+001 1.823880e+001
         vertex -2.588190e+000 -5.400000e+001 1.865926e+001
      endloop
   endfacet
   facet normal -3.006794e-001 0.000000e+000 9.537253e-001
      outer loop
         vertex -3.826834e+000 -5.000000e+001 1.823880e+001
         vertex -2.588190e+000 -5.400000e+001 1.865926e+001
         vertex -2.588190e+000 -5.000000e+001 1.865926e+001
      endloop
   endfacet
   facet normal -2.164667e-001 0.000000e+000 9.762900e-001
      outer loop
         vertex -2.588190e+000 -5.000000e+001 1.865926e+001
         vertex -2.588190e+000 -5.400000e+001 1.865926e+001
         vertex -1.305262e+000 -5.400000e+001 1.891445e+001
      endloop
   endfacet
   facet normal -1.736209e-001 0.000000e+000 9.848126e-001
      outer loop
         vertex -2.588190e+000 -5.000000e+001 1.865926e+001
         vertex -1.305262e+000 -5.400000e+001 1.891445e+001
         vertex -1.305262e+000 -5.000000e+001 1.891445e+001
      endloop
   endfacet
   facet normal -8.718336e-002 0.000000e+000 9.961922e-001
      outer loop
         vertex -1.305262e+000 -5.000000e+001 1.891445e+001
         vertex -1.305262e+000 -5.400000e+001 1.891445e+001
         vertex 3.469447e-015 -5.400000e+001 1.900000e+001
      endloop
   endfacet
   facet normal -4.359168e-002 0.000000e+000 9.990495e-001
      outer loop
         vertex -1.305262e+000 -5.000000e+001 1.891445e+001
         vertex 3.469447e-015 -5.400000e+001 1.900000e+001
         vertex 3.469447e-015 -5.000000e+001 1.900000e+001
      endloop
   endfacet
   facet normal 0.000000e+000 9.990495e-001 4.359168e-002
      outer loop
         vertex -1.000000e+001 -5.000000e+001 -1.000000e+000
         vertex 1.000000e+001 -5.000000e+001 -1.000000e+000
         vertex 1.000000e+001 -4.991445e+001 -2.305262e+000
      endloop
   endfacet
   facet normal 0.000000e+000 9.961922e-001 8.718336e-002
      outer loop
         vertex -1.000000e+001 -5.000000e+001 -1.000000e+000
         vertex 1.000000e+001 -4.991445e+001 -2.305262e+000
         vertex -1.000000e+001 -4.991445e+001 -2.305262e+000
      endloop
   endfacet
   facet normal 0.000000e+000 9.848126e-001 1.736209e-001
      outer loop
         vertex -1.000000e+001 -4.991445e+001 -2.305262e+000
         vertex 1.000000e+001 -4.991445e+001 -2.305262e+000
         vertex 1.000000e+001 -4.965926e+001 -3.588191e+000
      endloop
   endfacet
   facet normal 0.000000e+000 9.762900e-001 2.164667e-001
      outer loop
         vertex -1.000000e+001 -4.991445e+001 -2.305262e+000
         vertex 1.000000e+001 -4.965926e+001 -3.588191e+000
         vertex -1.000000e+001 -4.965926e+001 -3.588191e+000
      endloop
   endfacet
   facet normal 0.000000e+000 9.537253e-001 3.006794e-001
      outer loop
         vertex -1.000000e+001 -4.965926e+001 -3.588191e+000
         vertex 1.000000e+001 -4.965926e+001 -3.588191e+000
         vertex 1.000000e+001 -4.923879e+001 -4.826834e+000
      endloop
   endfacet
   facet normal 0.000000e+000 9.396831e-001 3.420462e-001
      outer loop
         vertex -1.000000e+001 -4.965926e+001 -3.588191e+000
         vertex 1.000000e+001 -4.923879e+001 -4.826834e+000
         vertex -1.000000e+001 -4.923879e+001 -4.826834e+000
      endloop
   endfacet
   facet normal 0.000000e+000 9.063195e-001 4.225931e-001
      outer loop
         vertex -1.000000e+001 -4.923879e+001 -4.826834e+000
         vertex 1.000000e+001 -4.923879e+001 -4.826834e+000
         vertex 1.000000e+001 -4.866025e+001 -6.000000e+000
      endloop
   endfacet
   facet normal 0.000000e+000 8.869980e-001 4.617732e-001
      outer loop
         vertex -1.000000e+001 -4.923879e+001 -4.826834e+000
         vertex 1.000000e+001 -4.866025e+001 -6.000000e+000
         vertex -1.000000e+001 -4.866025e+001 -6.000000e+000
      endloop
   endfacet
   facet normal 0.000000e+000 8.434063e-001 5.372763e-001
      outer loop
         vertex -1.000000e+001 -4.866025e+001 -6.000000e+000
         vertex 1.000000e+001 -4.866025e+001 -6.000000e+000
         vertex 1.000000e+001 -4.793353e+001 -7.087615e+000
      endloop
   endfacet
   facet normal 0.000000e+000 8.191361e-001 5.735992e-001
      outer loop
         vertex -1.000000e+001 -4.866025e+001 -6.000000e+000
         vertex 1.000000e+001 -4.793353e+001 -7.087615e+000
         vertex -1.000000e+001 -4.793353e+001 -7.087615e+000
      endloop
   endfacet
   facet normal 0.000000e+000 7.660623e-001 6.427664e-001
      outer loop
         vertex -1.000000e+001 -4.793353e+001 -7.087615e+000
         vertex 1.000000e+001 -4.793353e+001 -7.087615e+000
         vertex 1.000000e+001 -4.707107e+001 -8.071068e+000
      endloop
   endfacet
   facet normal 0.000000e+000 7.372586e-001 6.756107e-001
      outer loop
         vertex -1.000000e+001 -4.793353e+001 -7.087615e+000
         vertex 1.000000e+001 -4.707107e+001 -8.071068e+000
         vertex -1.000000e+001 -4.707107e+001 -8.071068e+000
      endloop
   endfacet
   facet normal 0.000000e+000 6.756107e-001 7.372586e-001
      outer loop
         vertex -1.000000e+001 -4.707107e+001 -8.071068e+000
         vertex 1.000000e+001 -4.707107e+001 -8.071068e+000
         vertex 1.000000e+001 -4.608762e+001 -8.933533e+000
      endloop
   endfacet
   facet normal 0.000000e+000 6.427664e-001 7.660623e-001
      outer loop
         vertex -1.000000e+001 -4.707107e+001 -8.071068e+000
         vertex 1.000000e+001 -4.608762e+001 -8.933533e+000
         vertex -1.000000e+001 -4.608762e+001 -8.933533e+000
      endloop
   endfacet
   facet normal 0.000000e+000 5.735992e-001 8.191361e-001
      outer loop
         vertex -1.000000e+001 -4.608762e+001 -8.933533e+000
         vertex 1.000000e+001 -4.608762e+001 -8.933533e+000
         vertex 1.000000e+001 -4.500000e+001 -9.660254e+000
      endloop
   endfacet
   facet normal 0.000000e+000 5.372762e-001 8.434064e-001
      outer loop
         vertex -1.000000e+001 -4.608762e+001 -8.933533e+000
         vertex 1.000000e+001 -4.500000e+001 -9.660254e+000
         vertex -1.000000e+001 -4.500000e+001 -9.660254e+000
      endloop
   endfacet
   facet normal 0.000000e+000 4.617732e-001 8.869980e-001
      outer loop
         vertex -1.000000e+001 -4.500000e+001 -9.660254e+000
         vertex 1.000000e+001 -4.500000e+001 -9.660254e+000
         vertex 1.000000e+001 -4.382683e+001 -1.023880e+001
      endloop
   endfacet
   facet normal 0.000000e+000 4.225931e-001 9.063195e-001
      outer loop
         vertex -1.000000e+001 -4.500000e+001 -9.660254e+000
         vertex 1.000000e+001 -4.382683e+001 -1.023880e+001
         vertex -1.000000e+001 -4.382683e+001 -1.023880e+001
      endloop
   endfacet
   facet normal 0.000000e+000 3.420462e-001 9.396831e-001
      outer loop
         vertex -1.000000e+001 -4.382683e+001 -1.023880e+001
         vertex 1.000000e+001 -4.382683e+001 -1.023880e+001
         vertex 1.000000e+001 -4.258819e+001 -1.065926e+001
      endloop
   endfacet
   facet normal 0.000000e+000 3.006794e-001 9.537253e-001
      outer loop
         vertex -1.000000e+001 -4.382683e+001 -1.023880e+001
         vertex 1.000000e+001 -4.258819e+001 -1.065926e+001
         vertex -1.000000e+001 -4.258819e+001 -1.065926e+001
      endloop
   endfacet
   facet normal 0.000000e+000 2.164667e-001 9.762900e-001
      outer loop
         vertex -1.000000e+001 -4.258819e+001 -1.065926e+001
         vertex 1.000000e+001 -4.258819e+001 -1.065926e+001
         vertex 1.000000e+001 -4.130526e+001 -1.091445e+001
      endloop
   endfacet
   facet normal 0.000000e+000 1.736209e-001 9.848126e-001
      outer loop
         vertex -1.000000e+001 -4.258819e+001 -1.065926e+001
         vertex 1.000000e+001 -4.130526e+001 -1.091445e+001
         vertex -1.000000e+001 -4.130526e+001 -1.091445e+001
      endloop
   endfacet
   facet normal 0.000000e+000 8.718336e-002 9.961922e-001
      outer loop
         vertex -1.000000e+001 -4.130526e+001 -1.091445e+001
         vertex 1.000000e+001 -4.130526e+001 -1.091445e+001
         vertex 1.000000e+001 -4.000000e+001 -1.100000e+001
      endloop
   endfacet
   facet normal 0.000000e+000 4.359168e-002 9.990495e-001
      outer loop
         vertex -1.000000e+001 -4.130526e+001 -1.091445e+001
         vertex 1.000000e+001 -4.000000e+001 -1.100000e+001
         vertex -1.000000e+001 -4.000000e+001 -1.100000e+001
      endloop
   endfacet
   facet normal -1.153731e-016 -9.990495e-001 4.359168e-002
      outer loop
         vertex 1.000000e+001 -2.400000e+001 -1.000000e+000
         vertex -1.000000e+001 -2.400000e+001 -1.000000e+000
         vertex -1.000000e+001 -2.408555e+001 -2.305262e+000
      endloop
   endfacet
   facet normal -1.148774e-016 -9.961922e-001 8.718336e-002
      outer loop
         vertex 1.000000e+001 -2.400000e+001 -1.000000e+000
         vertex -1.000000e+001 -2.408555e+001 -2.305262e+000
         vertex 1.000000e+001 -2.408555e+001 -2.305262e+000
      endloop
   endfacet
   facet normal -1.708377e-016 -9.848126e-001 1.736209e-001
      outer loop
         vertex 1.000000e+001 -2.408555e+001 -2.305262e+000
         vertex -1.000000e+001 -2.408555e+001 -2.305262e+000
         vertex -1.000000e+001 -2.434074e+001 -3.588191e+000
      endloop
   endfacet
   facet normal -1.693593e-016 -9.762900e-001 2.164667e-001
      outer loop
         vertex 1.000000e+001 -2.408555e+001 -2.305262e+000
         vertex -1.000000e+001 -2.434074e+001 -3.588191e+000
         vertex 1.000000e+001 -2.434074e+001 -3.588191e+000
      endloop
   endfacet
   facet normal -1.654450e-016 -9.537253e-001 3.006794e-001
      outer loop
         vertex 1.000000e+001 -2.434074e+001 -3.588191e+000
         vertex -1.000000e+001 -2.434074e+001 -3.588191e+000
         vertex -1.000000e+001 -2.476121e+001 -4.826834e+000
      endloop
   endfacet
   facet normal -1.630090e-016 -9.396831e-001 3.420462e-001
      outer loop
         vertex 1.000000e+001 -2.434074e+001 -3.588191e+000
         vertex -1.000000e+001 -2.476121e+001 -4.826834e+000
         vertex 1.000000e+001 -2.476121e+001 -4.826834e+000
      endloop
   endfacet
   facet normal -1.572214e-016 -9.063195e-001 4.225931e-001
      outer loop
         vertex 1.000000e+001 -2.476121e+001 -4.826834e+000
         vertex -1.000000e+001 -2.476121e+001 -4.826834e+000
         vertex -1.000000e+001 -2.533975e+001 -6.000000e+000
      endloop
   endfacet
   facet normal -1.538696e-016 -8.869980e-001 4.617732e-001
      outer loop
         vertex 1.000000e+001 -2.476121e+001 -4.826834e+000
         vertex -1.000000e+001 -2.533975e+001 -6.000000e+000
         vertex 1.000000e+001 -2.533975e+001 -6.000000e+000
      endloop
   endfacet
   facet normal -1.463077e-016 -8.434063e-001 5.372763e-001
      outer loop
         vertex 1.000000e+001 -2.533975e+001 -6.000000e+000
         vertex -1.000000e+001 -2.533975e+001 -6.000000e+000
         vertex -1.000000e+001 -2.606647e+001 -7.087615e+000
      endloop
   endfacet
   facet normal -1.420975e-016 -8.191361e-001 5.735992e-001
      outer loop
         vertex 1.000000e+001 -2.533975e+001 -6.000000e+000
         vertex -1.000000e+001 -2.606647e+001 -7.087615e+000
         vertex 1.000000e+001 -2.606647e+001 -7.087615e+000
      endloop
   endfacet
   facet normal -1.328906e-016 -7.660623e-001 6.427664e-001
      outer loop
         vertex 1.000000e+001 -2.606647e+001 -7.087615e+000
         vertex -1.000000e+001 -2.606647e+001 -7.087615e+000
         vertex -1.000000e+001 -2.692893e+001 -8.071068e+000
      endloop
   endfacet
   facet normal -1.278940e-016 -7.372586e-001 6.756107e-001
      outer loop
         vertex 1.000000e+001 -2.606647e+001 -7.087615e+000
         vertex -1.000000e+001 -2.692893e+001 -8.071068e+000
         vertex 1.000000e+001 -2.692893e+001 -8.071068e+000
      endloop
   endfacet
   facet normal -1.171998e-016 -6.756107e-001 7.372586e-001
      outer loop
         vertex 1.000000e+001 -2.692893e+001 -8.071068e+000
         vertex -1.000000e+001 -2.692893e+001 -8.071068e+000
         vertex -1.000000e+001 -2.791239e+001 -8.933533e+000
      endloop
   endfacet
   facet normal -1.115022e-016 -6.427664e-001 7.660623e-001
      outer loop
         vertex 1.000000e+001 -2.692893e+001 -8.071068e+000
         vertex -1.000000e+001 -2.791239e+001 -8.933533e+000
         vertex 1.000000e+001 -2.791239e+001 -8.933533e+000
      endloop
   endfacet
   facet normal -9.950359e-017 -5.735992e-001 8.191361e-001
      outer loop
         vertex 1.000000e+001 -2.791239e+001 -8.933533e+000
         vertex -1.000000e+001 -2.791239e+001 -8.933533e+000
         vertex -1.000000e+001 -2.900000e+001 -9.660254e+000
      endloop
   endfacet
   facet normal -9.320257e-017 -5.372762e-001 8.434064e-001
      outer loop
         vertex 1.000000e+001 -2.791239e+001 -8.933533e+000
         vertex -1.000000e+001 -2.900000e+001 -9.660254e+000
         vertex 1.000000e+001 -2.900000e+001 -9.660254e+000
      endloop
   endfacet
   facet normal -8.010488e-017 -4.617732e-001 8.869980e-001
      outer loop
         vertex 1.000000e+001 -2.900000e+001 -9.660254e+000
         vertex -1.000000e+001 -2.900000e+001 -9.660254e+000
         vertex -1.000000e+001 -3.017317e+001 -1.023880e+001
      endloop
   endfacet
   facet normal -7.330823e-017 -4.225931e-001 9.063195e-001
      outer loop
         vertex 1.000000e+001 -2.900000e+001 -9.660254e+000
         vertex -1.000000e+001 -3.017317e+001 -1.023880e+001
         vertex 1.000000e+001 -3.017317e+001 -1.023880e+001
      endloop
   endfacet
   facet normal -5.933556e-017 -3.420462e-001 9.396831e-001
      outer loop
         vertex 1.000000e+001 -3.017317e+001 -1.023880e+001
         vertex -1.000000e+001 -3.017317e+001 -1.023880e+001
         vertex -1.000000e+001 -3.141181e+001 -1.065926e+001
      endloop
   endfacet
   facet normal -5.215956e-017 -3.006794e-001 9.537253e-001
      outer loop
         vertex 1.000000e+001 -3.017317e+001 -1.023880e+001
         vertex -1.000000e+001 -3.141181e+001 -1.065926e+001
         vertex 1.000000e+001 -3.141181e+001 -1.065926e+001
      endloop
   endfacet
   facet normal -3.755099e-017 -2.164667e-001 9.762900e-001
      outer loop
         vertex 1.000000e+001 -3.141181e+001 -1.065926e+001
         vertex -1.000000e+001 -3.141181e+001 -1.065926e+001
         vertex -1.000000e+001 -3.269474e+001 -1.091445e+001
      endloop
   endfacet
   facet normal -3.011842e-017 -1.736209e-001 9.848126e-001
      outer loop
         vertex 1.000000e+001 -3.141181e+001 -1.065926e+001
         vertex -1.000000e+001 -3.269474e+001 -1.091445e+001
         vertex 1.000000e+001 -3.269474e+001 -1.091445e+001
      endloop
   endfacet
   facet normal -1.512390e-017 -8.718336e-002 9.961922e-001
      outer loop
         vertex 1.000000e+001 -3.269474e+001 -1.091445e+001
         vertex -1.000000e+001 -3.269474e+001 -1.091445e+001
         vertex -1.000000e+001 -3.400000e+001 -1.100000e+001
      endloop
   endfacet
   facet normal -7.561952e-018 -4.359168e-002 9.990495e-001
      outer loop
         vertex 1.000000e+001 -3.269474e+001 -1.091445e+001
         vertex -1.000000e+001 -3.400000e+001 -1.100000e+001
         vertex 1.000000e+001 -3.400000e+001 -1.100000e+001
      endloop
   endfacet
   facet normal 1.153731e-016 9.990495e-001 -4.359168e-002
      outer loop
         vertex -1.000000e+001 -2.000000e+001 -5.000000e+000
         vertex 1.000000e+001 -2.000000e+001 -5.000000e+000
         vertex 1.000000e+001 -2.008555e+001 -6.305262e+000
      endloop
   endfacet
   facet normal 1.728118e-016 9.961922e-001 -8.718336e-002
      outer loop
         vertex -1.000000e+001 -2.000000e+001 -5.000000e+000
         vertex 1.000000e+001 -2.008555e+001 -6.305262e+000
         vertex -1.000000e+001 -2.008555e+001 -6.305262e+000
      endloop
   endfacet
   facet normal 1.708377e-016 9.848126e-001 -1.736209e-001
      outer loop
         vertex -1.000000e+001 -2.008555e+001 -6.305262e+000
         vertex 1.000000e+001 -2.008555e+001 -6.305262e+000
         vertex 1.000000e+001 -2.034074e+001 -7.588191e+000
      endloop
   endfacet
   facet normal 1.693593e-016 9.762900e-001 -2.164667e-001
      outer loop
         vertex -1.000000e+001 -2.008555e+001 -6.305262e+000
         vertex 1.000000e+001 -2.034074e+001 -7.588191e+000
         vertex -1.000000e+001 -2.034074e+001 -7.588191e+000
      endloop
   endfacet
   facet normal 1.654450e-016 9.537253e-001 -3.006794e-001
      outer loop
         vertex -1.000000e+001 -2.034074e+001 -7.588191e+000
         vertex 1.000000e+001 -2.034074e+001 -7.588191e+000
         vertex 1.000000e+001 -2.076121e+001 -8.826834e+000
      endloop
   endfacet
   facet normal 1.630090e-016 9.396831e-001 -3.420462e-001
      outer loop
         vertex -1.000000e+001 -2.034074e+001 -7.588191e+000
         vertex 1.000000e+001 -2.076121e+001 -8.826834e+000
         vertex -1.000000e+001 -2.076121e+001 -8.826834e+000
      endloop
   endfacet
   facet normal 1.572214e-016 9.063195e-001 -4.225931e-001
      outer loop
         vertex -1.000000e+001 -2.076121e+001 -8.826834e+000
         vertex 1.000000e+001 -2.076121e+001 -8.826834e+000
         vertex 1.000000e+001 -2.133975e+001 -1.000000e+001
      endloop
   endfacet
   facet normal 1.538696e-016 8.869980e-001 -4.617732e-001
      outer loop
         vertex -1.000000e+001 -2.076121e+001 -8.826834e+000
         vertex 1.000000e+001 -2.133975e+001 -1.000000e+001
         vertex -1.000000e+001 -2.133975e+001 -1.000000e+001
      endloop
   endfacet
   facet normal 1.463077e-016 8.434063e-001 -5.372763e-001
      outer loop
         vertex -1.000000e+001 -2.133975e+001 -1.000000e+001
         vertex 1.000000e+001 -2.133975e+001 -1.000000e+001
         vertex 1.000000e+001 -2.206647e+001 -1.108761e+001
      endloop
   endfacet
   facet normal 1.420975e-016 8.191361e-001 -5.735992e-001
      outer loop
         vertex -1.000000e+001 -2.133975e+001 -1.000000e+001
         vertex 1.000000e+001 -2.206647e+001 -1.108761e+001
         vertex -1.000000e+001 -2.206647e+001 -1.108761e+001
      endloop
   endfacet
   facet normal 1.328906e-016 7.660623e-001 -6.427664e-001
      outer loop
         vertex -1.000000e+001 -2.206647e+001 -1.108761e+001
         vertex 1.000000e+001 -2.206647e+001 -1.108761e+001
         vertex 1.000000e+001 -2.292893e+001 -1.207107e+001
      endloop
   endfacet
   facet normal 1.278940e-016 7.372586e-001 -6.756107e-001
      outer loop
         vertex -1.000000e+001 -2.206647e+001 -1.108761e+001
         vertex 1.000000e+001 -2.292893e+001 -1.207107e+001
         vertex -1.000000e+001 -2.292893e+001 -1.207107e+001
      endloop
   endfacet
   facet normal 1.171998e-016 6.756107e-001 -7.372586e-001
      outer loop
         vertex -1.000000e+001 -2.292893e+001 -1.207107e+001
         vertex 1.000000e+001 -2.292893e+001 -1.207107e+001
         vertex 1.000000e+001 -2.391239e+001 -1.293353e+001
      endloop
   endfacet
   facet normal 1.115022e-016 6.427664e-001 -7.660623e-001
      outer loop
         vertex -1.000000e+001 -2.292893e+001 -1.207107e+001
         vertex 1.000000e+001 -2.391239e+001 -1.293353e+001
         vertex -1.000000e+001 -2.391239e+001 -1.293353e+001
      endloop
   endfacet
   facet normal 9.950359e-017 5.735992e-001 -8.191361e-001
      outer loop
         vertex -1.000000e+001 -2.391239e+001 -1.293353e+001
         vertex 1.000000e+001 -2.391239e+001 -1.293353e+001
         vertex 1.000000e+001 -2.500000e+001 -1.366025e+001
      endloop
   endfacet
   facet normal 9.320257e-017 5.372762e-001 -8.434064e-001
      outer loop
         vertex -1.000000e+001 -2.391239e+001 -1.293353e+001
         vertex 1.000000e+001 -2.500000e+001 -1.366025e+001
         vertex -1.000000e+001 -2.500000e+001 -1.366025e+001
      endloop
   endfacet
   facet normal 8.010488e-017 4.617732e-001 -8.869980e-001
      outer loop
         vertex -1.000000e+001 -2.500000e+001 -1.366025e+001
         vertex 1.000000e+001 -2.500000e+001 -1.366025e+001
         vertex 1.000000e+001 -2.617316e+001 -1.423880e+001
      endloop
   endfacet
   facet normal 7.330823e-017 4.225931e-001 -9.063195e-001
      outer loop
         vertex -1.000000e+001 -2.500000e+001 -1.366025e+001
         vertex 1.000000e+001 -2.617316e+001 -1.423880e+001
         vertex -1.000000e+001 -2.617316e+001 -1.423880e+001
      endloop
   endfacet
   facet normal 5.933556e-017 3.420462e-001 -9.396831e-001
      outer loop
         vertex -1.000000e+001 -2.617316e+001 -1.423880e+001
         vertex 1.000000e+001 -2.617316e+001 -1.423880e+001
         vertex 1.000000e+001 -2.741181e+001 -1.465926e+001
      endloop
   endfacet
   facet normal 5.215956e-017 3.006794e-001 -9.537253e-001
      outer loop
         vertex -1.000000e+001 -2.617316e+001 -1.423880e+001
         vertex 1.000000e+001 -2.741181e+001 -1.465926e+001
         vertex -1.000000e+001 -2.741181e+001 -1.465926e+001
      endloop
   endfacet
   facet normal 3.755099e-017 2.164667e-001 -9.762900e-001
      outer loop
         vertex -1.000000e+001 -2.741181e+001 -1.465926e+001
         vertex 1.000000e+001 -2.741181e+001 -1.465926e+001
         vertex 1.000000e+001 -2.869474e+001 -1.491445e+001
      endloop
   endfacet
   facet normal 3.011842e-017 1.736209e-001 -9.848126e-001
      outer loop
         vertex -1.000000e+001 -2.741181e+001 -1.465926e+001
         vertex 1.000000e+001 -2.869474e+001 -1.491445e+001
         vertex -1.000000e+001 -2.869474e+001 -1.491445e+001
      endloop
   endfacet
   facet normal 1.512390e-017 8.718336e-002 -9.961922e-001
      outer loop
         vertex -1.000000e+001 -2.869474e+001 -1.491445e+001
         vertex 1.000000e+001 -2.869474e+001 -1.491445e+001
         vertex 1.000000e+001 -3.000000e+001 -1.500000e+001
      endloop
   endfacet
   facet normal 7.561952e-018 4.359168e-002 -9.990495e-001
      outer loop
         vertex -1.000000e+001 -2.869474e+001 -1.491445e+001
         vertex 1.000000e+001 -3.000000e+001 -1.500000e+001
         vertex -1.000000e+001 -3.000000e+001 -1.500000e+001
      endloop
   endfacet
   facet normal -7.561952e-018 -4.359168e-002 -9.990495e-001
      outer loop
         vertex -1.000000e+001 -4.400000e+001 -1.500000e+001
         vertex 1.000000e+001 -4.400000e+001 -1.500000e+001
         vertex 1.000000e+001 -4.530526e+001 -1.491445e+001
      endloop
   endfacet
   facet normal -1.512390e-017 -8.718336e-002 -9.961922e-001
      outer loop
         vertex -1.000000e+001 -4.400000e+001 -1.500000e+001
         vertex 1.000000e+001 -4.530526e+001 -1.491445e+001
         vertex -1.000000e+001 -4.530526e+001 -1.491445e+001
      endloop
   endfacet
   facet normal -3.011842e-017 -1.736209e-001 -9.848126e-001
      outer loop
         vertex -1.000000e+001 -4.530526e+001 -1.491445e+001
         vertex 1.000000e+001 -4.530526e+001 -1.491445e+001
         vertex 1.000000e+001 -4.658819e+001 -1.465926e+001
      endloop
   endfacet
   facet normal -3.755099e-017 -2.164667e-001 -9.762900e-001
      outer loop
         vertex -1.000000e+001 -4.530526e+001 -1.491445e+001
         vertex 1.000000e+001 -4.658819e+001 -1.465926e+001
         vertex -1.000000e+001 -4.658819e+001 -1.465926e+001
      endloop
   endfacet
   facet normal -5.215956e-017 -3.006794e-001 -9.537253e-001
      outer loop
         vertex -1.000000e+001 -4.658819e+001 -1.465926e+001
         vertex 1.000000e+001 -4.658819e+001 -1.465926e+001
         vertex 1.000000e+001 -4.782684e+001 -1.423880e+001
      endloop
   endfacet
   facet normal -5.933556e-017 -3.420462e-001 -9.396831e-001
      outer loop
         vertex -1.000000e+001 -4.658819e+001 -1.465926e+001
         vertex 1.000000e+001 -4.782684e+001 -1.423880e+001
         vertex -1.000000e+001 -4.782684e+001 -1.423880e+001
      endloop
   endfacet
   facet normal -7.330823e-017 -4.225931e-001 -9.063195e-001
      outer loop
         vertex -1.000000e+001 -4.782684e+001 -1.423880e+001
         vertex 1.000000e+001 -4.782684e+001 -1.423880e+001
         vertex 1.000000e+001 -4.900000e+001 -1.366025e+001
      endloop
   endfacet
   facet normal -8.010488e-017 -4.617732e-001 -8.869980e-001
      outer loop
         vertex -1.000000e+001 -4.782684e+001 -1.423880e+001
         vertex 1.000000e+001 -4.900000e+001 -1.366025e+001
         vertex -1.000000e+001 -4.900000e+001 -1.366025e+001
      endloop
   endfacet
   facet normal -9.320258e-017 -5.372763e-001 -8.434063e-001
      outer loop
         vertex -1.000000e+001 -4.900000e+001 -1.366025e+001
         vertex 1.000000e+001 -4.900000e+001 -1.366025e+001
         vertex 1.000000e+001 -5.008762e+001 -1.293353e+001
      endloop
   endfacet
   facet normal -9.950359e-017 -5.735992e-001 -8.191361e-001
      outer loop
         vertex -1.000000e+001 -4.900000e+001 -1.366025e+001
         vertex 1.000000e+001 -5.008762e+001 -1.293353e+001
         vertex -1.000000e+001 -5.008762e+001 -1.293353e+001
      endloop
   endfacet
   facet normal -1.115022e-016 -6.427664e-001 -7.660623e-001
      outer loop
         vertex -1.000000e+001 -5.008762e+001 -1.293353e+001
         vertex 1.000000e+001 -5.008762e+001 -1.293353e+001
         vertex 1.000000e+001 -5.107107e+001 -1.207107e+001
      endloop
   endfacet
   facet normal -1.171998e-016 -6.756107e-001 -7.372586e-001
      outer loop
         vertex -1.000000e+001 -5.008762e+001 -1.293353e+001
         vertex 1.000000e+001 -5.107107e+001 -1.207107e+001
         vertex -1.000000e+001 -5.107107e+001 -1.207107e+001
      endloop
   endfacet
   facet normal -1.278940e-016 -7.372586e-001 -6.756107e-001
      outer loop
         vertex -1.000000e+001 -5.107107e+001 -1.207107e+001
         vertex 1.000000e+001 -5.107107e+001 -1.207107e+001
         vertex 1.000000e+001 -5.193353e+001 -1.108761e+001
      endloop
   endfacet
   facet normal -1.328906e-016 -7.660623e-001 -6.427664e-001
      outer loop
         vertex -1.000000e+001 -5.107107e+001 -1.207107e+001
         vertex 1.000000e+001 -5.193353e+001 -1.108761e+001
         vertex -1.000000e+001 -5.193353e+001 -1.108761e+001
      endloop
   endfacet
   facet normal -1.420975e-016 -8.191361e-001 -5.735992e-001
      outer loop
         vertex -1.000000e+001 -5.193353e+001 -1.108761e+001
         vertex 1.000000e+001 -5.193353e+001 -1.108761e+001
         vertex 1.000000e+001 -5.266025e+001 -1.000000e+001
      endloop
   endfacet
   facet normal -1.463077e-016 -8.434064e-001 -5.372762e-001
      outer loop
         vertex -1.000000e+001 -5.193353e+001 -1.108761e+001
         vertex 1.000000e+001 -5.266025e+001 -1.000000e+001
         vertex -1.000000e+001 -5.266025e+001 -1.000000e+001
      endloop
   endfacet
   facet normal -1.538696e-016 -8.869980e-001 -4.617732e-001
      outer loop
         vertex -1.000000e+001 -5.266025e+001 -1.000000e+001
         vertex 1.000000e+001 -5.266025e+001 -1.000000e+001
         vertex 1.000000e+001 -5.323879e+001 -8.826834e+000
      endloop
   endfacet
   facet normal -1.572214e-016 -9.063195e-001 -4.225931e-001
      outer loop
         vertex -1.000000e+001 -5.266025e+001 -1.000000e+001
         vertex 1.000000e+001 -5.323879e+001 -8.826834e+000
         vertex -1.000000e+001 -5.323879e+001 -8.826834e+000
      endloop
   endfacet
   facet normal -1.630090e-016 -9.396831e-001 -3.420462e-001
      outer loop
         vertex -1.000000e+001 -5.323879e+001 -8.826834e+000
         vertex 1.000000e+001 -5.323879e+001 -8.826834e+000
         vertex 1.000000e+001 -5.365926e+001 -7.588191e+000
      endloop
   endfacet
   facet normal -1.654450e-016 -9.537253e-001 -3.006794e-001
      outer loop
         vertex -1.000000e+001 -5.323879e+001 -8.826834e+000
         vertex 1.000000e+001 -5.365926e+001 -7.588191e+000
         vertex -1.000000e+001 -5.365926e+001 -7.588191e+000
      endloop
   endfacet
   facet normal -1.693593e-016 -9.762900e-001 -2.164667e-001
      outer loop
         vertex -1.000000e+001 -5.365926e+001 -7.588191e+000
         vertex 1.000000e+001 -5.365926e+001 -7.588191e+000
         vertex 1.000000e+001 -5.391445e+001 -6.305262e+000
      endloop
   endfacet
   facet normal -1.708377e-016 -9.848126e-001 -1.736209e-001
      outer loop
         vertex -1.000000e+001 -5.365926e+001 -7.588191e+000
         vertex 1.000000e+001 -5.391445e+001 -6.305262e+000
         vertex -1.000000e+001 -5.391445e+001 -6.305262e+000
      endloop
   endfacet
   facet normal -1.728118e-016 -9.961922e-001 -8.718336e-002
      outer loop
         vertex -1.000000e+001 -5.391445e+001 -6.305262e+000
         vertex 1.000000e+001 -5.391445e+001 -6.305262e+000
         vertex 1.000000e+001 -5.400000e+001 -5.000000e+000
      endloop
   endfacet
   facet normal -1.733074e-016 -9.990495e-001 -4.359168e-002
      outer loop
         vertex -1.000000e+001 -5.391445e+001 -6.305262e+000
         vertex 1.000000e+001 -5.400000e+001 -5.000000e+000
         vertex -1.000000e+001 -5.400000e+001 -5.000000e+000
      endloop
   endfacet
endsolid